<svg width="21" height="19" viewBox="0 0 21 19" fill="none" xmlns="http://www.w3.org/2000/svg">
<path fill-rule="evenodd" clip-rule="evenodd" d="M10.5011 13.541C10.0871 13.541 9.7511 13.205 9.7511 12.791V0.75C9.7511 0.336 10.0871 0 10.5011 0C10.9151 0 11.2511 0.336 11.2511 0.75V12.791C11.2511 13.205 10.9151 13.541 10.5011 13.541Z" fill="#F4FCFF"/>
<path fill-rule="evenodd" clip-rule="evenodd" d="M10.5011 13.541C10.3021 13.541 10.1101 13.462 9.97007 13.32L7.05407 10.393C6.76207 10.099 6.76307 9.62403 7.05607 9.33203C7.35007 9.04003 7.82407 9.04003 8.11607 9.33403L10.5011 11.729L12.8861 9.33403C13.1781 9.04003 13.6521 9.04003 13.9461 9.33203C14.2391 9.62403 14.2401 10.099 13.9481 10.393L11.0321 13.32C10.8921 13.462 10.7001 13.541 10.5011 13.541Z" fill="#F4FCFF"/>
<mask id="mask0_294_592" style="mask-type:alpha" maskUnits="userSpaceOnUse" x="0" y="4" width="21" height="15">
<path fill-rule="evenodd" clip-rule="evenodd" d="M0.500244 4.73242H20.5V18.4764H0.500244V4.73242Z" fill="white"/>
</mask>
<g mask="url(#mask0_294_592)">
<path fill-rule="evenodd" clip-rule="evenodd" d="M16.0752 18.4764H4.93524C2.49024 18.4764 0.500244 16.4874 0.500244 14.0414V9.15642C0.500244 6.71642 2.48524 4.73242 4.92624 4.73242H5.86724C6.28124 4.73242 6.61724 5.06842 6.61724 5.48242C6.61724 5.89642 6.28124 6.23242 5.86724 6.23242H4.92624C3.31224 6.23242 2.00024 7.54342 2.00024 9.15642V14.0414C2.00024 15.6604 3.31624 16.9764 4.93524 16.9764H16.0752C17.6872 16.9764 19.0002 15.6634 19.0002 14.0514V9.16742C19.0002 7.54842 17.6832 6.23242 16.0662 6.23242H15.1342C14.7202 6.23242 14.3842 5.89642 14.3842 5.48242C14.3842 5.06842 14.7202 4.73242 15.1342 4.73242H16.0662C18.5112 4.73242 20.5002 6.72242 20.5002 9.16742V14.0514C20.5002 16.4914 18.5142 18.4764 16.0752 18.4764Z" fill="#F4FCFF"/>
</g>
</svg>
