<svg width="130" height="83" viewBox="0 0 130 83" fill="none" xmlns="http://www.w3.org/2000/svg">
<path d="M12.6463 42.4936C12.6463 42.4936 12.6273 42.4923 12.5891 42.4897C12.5562 42.4963 12.5141 42.5083 12.4627 42.5257C12.4205 42.5377 12.3717 42.5596 12.3163 42.5916C12.1476 42.6396 11.9946 42.6171 11.8571 42.5239C11.7248 42.4402 11.6356 42.3131 11.5894 42.1428C11.6056 42.0842 11.5891 41.989 11.54 41.8573C11.4909 41.7255 11.4456 41.6224 11.404 41.5479C11.3994 41.4521 11.3939 41.3875 11.3875 41.3542C11.376 41.3117 11.3471 41.2052 11.3009 41.0349C11.2402 40.8605 11.1643 40.615 11.073 40.2983C10.9858 39.9669 10.8928 39.6142 10.794 39.2403C10.7045 38.861 10.6182 38.4983 10.535 38.1523C10.4518 37.8063 10.3854 37.5122 10.3357 37.27C10.2953 37.0225 10.2811 36.8767 10.2932 36.8328C10.2932 36.8328 10.2854 36.8188 10.2699 36.7909C10.2491 36.7536 10.2283 36.7164 10.2075 36.6791C10.2075 36.6791 10.1887 36.6345 10.1512 36.5454C10.1177 36.4416 10.1067 36.3125 10.1182 36.1581C10.098 36.0343 10.068 35.9039 10.0281 35.7668C9.98826 35.6297 9.95794 35.5426 9.93715 35.5053C9.94812 35.4374 9.93656 35.2964 9.90248 35.0821C9.87244 34.8532 9.84038 34.6316 9.8063 34.4173C9.77858 34.2363 9.75027 34.0433 9.72139 33.8384C9.70174 33.6281 9.68124 33.4491 9.65986 33.3014C9.64773 33.1483 9.64166 33.0718 9.64166 33.0718C9.62087 33.0345 9.61048 33.0159 9.61048 33.0159C9.60528 33.0066 9.60268 33.0019 9.60268 33.0019C9.61885 32.9433 9.60267 32.7064 9.55414 32.2912C9.50966 31.8613 9.46142 31.3043 9.40942 30.6202C9.4048 30.5244 9.40422 30.4139 9.40768 30.2888C9.41114 30.1637 9.40248 30.0825 9.38168 30.0453C9.3863 29.9441 9.43279 29.8742 9.52115 29.8356C9.60432 29.7876 9.70308 29.7676 9.81743 29.7755C9.94103 29.7781 10.0545 29.8174 10.1579 29.8932L10.4213 30.0368L10.4837 31.3305C10.4814 31.6765 10.4892 31.986 10.5071 32.2588C10.5342 32.5263 10.5582 32.6787 10.579 32.716C10.579 32.716 10.5929 32.8065 10.6206 32.9875C10.6483 33.1685 10.6824 33.3827 10.7228 33.6303C10.7633 33.8778 10.8026 34.1014 10.8407 34.301C10.9002 34.6484 10.9357 34.9418 10.9473 35.1814C10.9681 35.4157 10.9889 35.5514 11.0096 35.5887C10.9993 35.57 11.0931 35.4974 11.2912 35.3709C11.4893 35.2444 11.7454 35.0905 12.0596 34.9094C12.3738 34.7282 12.6926 34.5444 13.016 34.3579C13.3435 34.1568 13.6319 33.9843 13.8814 33.8404C14.135 33.6819 14.3027 33.5667 14.3848 33.4948L15.0665 33.0093L14.7347 31.2985C14.6631 30.9951 14.5833 30.6225 14.4955 30.1806C14.4077 29.7388 14.3373 29.3608 14.2841 29.0467C14.1929 28.533 14.1602 28.2009 14.1862 28.0505C14.2122 27.9001 14.2806 27.793 14.3915 27.729C14.4192 27.713 14.4614 27.701 14.518 27.693C14.5786 27.6704 14.6425 27.6643 14.7095 27.675C14.7805 27.6709 14.8408 27.6915 14.8905 27.7368C15.0586 27.7753 15.1744 27.8624 15.2379 27.9981C15.3107 28.1285 15.3329 28.3435 15.3046 28.643C15.2971 28.9797 15.3257 29.3264 15.3904 29.6831C15.4592 30.0251 15.5086 30.3106 15.5386 30.5395C15.601 30.6513 15.6391 30.7524 15.653 30.8429C15.6616 30.9241 15.6579 30.9939 15.6417 31.0525C15.6336 31.0818 15.6356 31.173 15.6478 31.326C15.6599 31.4791 15.6767 31.6295 15.698 31.7772C15.7194 31.9249 15.7379 32.0128 15.7535 32.0407C15.7899 32.1059 15.8202 32.1931 15.8445 32.3022C15.8687 32.4113 15.8728 32.4952 15.8566 32.5538C15.8693 32.6203 15.9057 32.784 15.9658 33.0448C16.0258 33.3057 16.1001 33.6138 16.1884 33.9691C16.2716 34.3151 16.3476 34.6591 16.4163 35.0011C16.4798 35.3339 16.5266 35.6147 16.5567 35.8436C16.5931 35.9088 16.6167 36.0059 16.6277 36.135C16.6335 36.2548 16.6572 36.352 16.6988 36.4265C16.7242 36.5596 16.7559 36.7259 16.7941 36.9255C16.8322 37.1252 16.8643 37.2483 16.8902 37.2948C16.9636 37.5357 17.0349 37.7839 17.1042 38.0394C17.1828 38.2896 17.2478 38.5045 17.2992 38.6842C17.365 38.8678 17.4058 38.9736 17.4213 39.0016C17.4052 39.0601 17.3523 39.0968 17.2628 39.1114C17.1733 39.1261 17.0673 39.1441 16.9449 39.1655C16.7121 39.1643 16.5435 39.1138 16.4389 39.014C16.3488 38.9182 16.2948 38.7339 16.2769 38.4611C16.2815 38.3599 16.2356 38.1463 16.1392 37.8203C16.0467 37.4796 15.9569 37.1436 15.8697 36.8122C15.8472 36.6405 15.8033 36.4196 15.738 36.1494C15.6675 35.87 15.5971 35.5905 15.5266 35.311C15.4509 35.0222 15.3894 34.7807 15.3421 34.5864C15.2895 34.3828 15.2673 34.2663 15.2753 34.237C15.2546 34.1998 15.2364 34.1672 15.2208 34.1392C15.2052 34.1113 15.1974 34.0973 15.1974 34.0973C15.1685 34.0894 15.0452 34.142 14.8275 34.2552C14.6045 34.3591 14.3386 34.5063 14.0296 34.6968C13.7154 34.878 13.3926 35.0764 13.0611 35.2922C12.7336 35.4933 12.4463 35.6898 12.1991 35.8816C12.0975 35.9402 11.982 36.0068 11.8526 36.0814C11.7232 36.156 11.6216 36.2146 11.5477 36.2572C11.446 36.3158 11.3582 36.3664 11.2843 36.4091C11.2196 36.4464 11.1873 36.465 11.1873 36.465C11.1936 36.4983 11.2159 36.6147 11.254 36.8144C11.2921 37.014 11.3418 37.2562 11.403 37.541C11.459 37.8165 11.5156 38.104 11.5728 38.4034C11.6341 38.6882 11.6941 38.949 11.7531 39.1859C11.816 39.4082 11.8616 39.5665 11.8899 39.661C11.9465 39.85 12.0127 40.0889 12.0883 40.3776C12.1733 40.6611 12.2515 40.9545 12.3231 41.258C12.4092 41.5654 12.4791 41.8329 12.5328 42.0605C12.5958 42.2827 12.6336 42.4271 12.6463 42.4936Z" fill="black"/>
<path d="M19.2516 37.0299C19.1401 36.9862 19.0396 36.9142 18.9502 36.814C18.8706 36.7093 18.8104 36.596 18.7697 36.474C18.7291 36.352 18.7114 36.2431 18.7168 36.1473C18.6832 36.0689 18.6677 36.0057 18.6704 35.9578C18.6786 35.8958 18.6694 35.8473 18.6429 35.8124C18.6163 35.7776 18.5967 35.7046 18.5839 35.5935C18.5711 35.4824 18.5604 35.3763 18.5518 35.275C18.5528 35.0878 18.5461 34.8689 18.5316 34.6185C18.5129 34.3582 18.4915 34.1051 18.4672 33.859C18.443 33.6129 18.4217 33.4006 18.4032 33.222C18.3847 33.0434 18.3719 32.9323 18.3648 32.8888C18.3144 32.7711 18.365 32.6727 18.5167 32.5934C18.6168 32.5021 18.7045 32.463 18.7798 32.4762C18.8509 32.4796 18.9687 32.538 19.1334 32.6514C19.2449 32.6951 19.3246 32.7998 19.3723 32.9653C19.42 33.1309 19.4407 33.3552 19.4344 33.6382C19.429 33.734 19.4286 33.8685 19.4332 34.0416C19.4475 34.2104 19.4701 34.3579 19.501 34.4843C19.4956 34.5801 19.4952 34.7145 19.4998 34.8877C19.5099 35.0466 19.5228 35.1985 19.5384 35.3433C19.5399 35.4011 19.552 35.4833 19.5745 35.59C19.5928 35.6869 19.6105 35.7958 19.6274 35.9167C19.6402 36.0278 19.6391 36.1334 19.624 36.2335C19.7085 36.6746 19.7265 36.9468 19.678 37.0501C19.6392 37.1492 19.4971 37.1424 19.2516 37.0299ZM18.1107 30.4273C18.041 30.4 17.9678 30.3509 17.891 30.2801C17.81 30.1994 17.7478 30.122 17.7045 30.0479C17.6569 29.964 17.6477 29.9155 17.677 29.9025C17.7507 29.858 17.8076 29.7334 17.8475 29.5288C17.8875 29.3241 17.8725 29.1673 17.8026 29.0584C17.7858 29.0192 17.7857 28.9783 17.8023 28.9359C17.8148 28.8837 17.8384 28.8439 17.8731 28.8168C17.9564 28.6862 18.0643 28.6265 18.1967 28.6376C18.3346 28.6345 18.4859 28.6897 18.6505 28.8032C18.818 28.9504 18.9096 29.0964 18.9253 29.2412C18.9367 29.3762 18.901 29.5907 18.818 29.8845C18.7559 30.1457 18.6657 30.3143 18.5474 30.3904C18.4389 30.4621 18.2933 30.4744 18.1107 30.4273Z" fill="black"/>
<path d="M24.0599 32.8275C23.7958 32.9782 23.5635 32.9081 23.3631 32.6172C23.1627 32.3263 23.0366 31.873 22.9848 31.2574C23.0039 31.1148 23.0146 30.9807 23.017 30.8553C23.016 30.7198 23.0034 30.6168 22.9794 30.5461C22.9749 30.4005 22.9736 30.2311 22.9754 30.038C22.9839 29.8312 22.9976 29.6395 23.0164 29.463C23.0317 29.2763 23.0459 29.1524 23.0588 29.0912C23.099 29.0769 23.1272 29.0272 23.1433 28.9422C23.1695 28.8536 23.1706 28.774 23.1465 28.7033C23.119 28.6225 23.1032 28.5263 23.099 28.4146C23.1048 28.2993 23.1209 28.2143 23.1474 28.1595C23.1302 28.1091 23.1314 28.0464 23.151 27.9715C23.1705 27.8966 23.1735 27.8389 23.1597 27.7985C23.146 27.7581 23.144 27.7192 23.1538 27.6817C23.1736 27.6407 23.1766 27.6 23.1629 27.5596C23.1984 27.3658 23.2332 27.0874 23.2673 26.7242C23.3081 26.3474 23.3386 25.9572 23.359 25.5537C23.3895 25.1466 23.4086 24.7888 23.4163 24.4803C23.424 24.1719 23.4175 23.9874 23.3969 23.9268C23.3895 23.8389 23.399 23.7675 23.4255 23.7128C23.4519 23.6581 23.5088 23.6265 23.596 23.6181C23.6259 23.5735 23.6609 23.544 23.7011 23.5297C23.7379 23.5053 23.7764 23.4859 23.8166 23.4716C23.8166 23.4716 23.8385 23.4864 23.8824 23.5161C23.9363 23.5422 24.0122 23.5831 24.11 23.6388C24.2145 23.6809 24.2872 23.7455 24.3282 23.8328C24.3691 23.9201 24.4103 24.0244 24.4515 24.1456C24.5067 24.341 24.5103 24.5832 24.4621 24.872C24.414 25.1609 24.3593 25.4804 24.2982 25.8305C24.263 26.0582 24.2244 26.2757 24.1823 26.4832C24.1503 26.6871 24.1412 26.8092 24.1549 26.8496C24.1687 26.89 24.1692 26.9577 24.1565 27.0528C24.1438 27.1479 24.1329 27.265 24.1239 27.4041C24.098 27.5265 24.0739 27.671 24.0517 27.8374C24.0295 28.0038 24.0088 28.1584 23.9898 28.301C23.9774 28.43 23.9763 28.5096 23.9866 28.5399C23.9903 28.5839 23.989 28.6297 23.9826 28.6772C23.9863 28.7212 23.9749 28.7705 23.9485 28.8252C23.9083 28.8396 23.8935 28.8788 23.9041 28.943C23.9212 28.9935 23.9298 29.0187 23.9298 29.0187C23.9436 29.0591 23.9511 29.164 23.9524 29.3333C23.9603 29.489 23.9484 29.6857 23.9166 29.9235C23.9079 30.5267 23.9183 31.0042 23.9478 31.3559C23.974 31.6976 24.0148 31.9831 24.0703 32.2124C24.1327 32.4619 24.1607 32.6105 24.1543 32.658C24.158 32.702 24.1266 32.7585 24.0599 32.8275ZM24.0708 35.5409C23.9039 35.6796 23.7552 35.7722 23.6245 35.8188C23.5005 35.8516 23.3442 35.8394 23.1557 35.782C22.903 35.6682 22.7758 35.5097 22.7742 35.3065C22.7793 35.0896 22.8815 34.8437 23.0809 34.5689C23.224 34.3934 23.334 34.2862 23.4109 34.2475C23.4979 34.2052 23.6456 34.1922 23.8539 34.2086C24.2207 34.2931 24.4235 34.4586 24.4623 34.7052C24.5112 34.9481 24.3807 35.2267 24.0708 35.5409Z" fill="black"/>
<path d="M40.1857 31.5568C40.1299 31.5439 40.0433 31.5036 39.9257 31.4357C39.8081 31.3678 39.698 31.2393 39.5952 31.0503C39.491 30.8508 39.4122 30.5662 39.3588 30.1967C39.3236 29.8784 39.2931 29.6295 39.2671 29.45C39.2518 29.2689 39.2019 29.1849 39.1176 29.1982C39.0333 29.2114 38.8822 29.3215 38.6642 29.5285C38.4553 29.7233 38.2178 29.982 37.9519 30.3045C37.6859 30.627 37.4193 30.982 37.152 31.3695C37.0634 31.5022 36.974 31.6296 36.8839 31.7517C36.8028 31.8616 36.7171 31.9399 36.6268 31.9864C36.535 32.0224 36.419 32.0029 36.2789 31.9277L36.0844 31.8125C36.0241 31.768 35.9849 31.7202 35.9667 31.6691C35.947 31.6074 35.9424 31.5379 35.9528 31.4607L36.1654 30.3584C36.2791 29.9519 36.3554 29.6592 36.3942 29.4803C36.4315 29.2909 36.4471 29.1751 36.441 29.1329C36.4334 29.0801 36.4145 29.0615 36.3845 29.077C36.3017 29.1008 36.1829 29.1735 36.028 29.295C35.8716 29.4059 35.7731 29.5078 35.7326 29.6005C35.6905 29.6071 35.6341 29.6646 35.5635 29.7728C35.493 29.8811 35.4006 29.9874 35.2863 30.0917C35.2308 30.23 35.1069 30.4168 34.9146 30.6522C34.7329 30.8859 34.5518 31.1248 34.3716 31.3691C34.2514 31.5067 34.135 31.6708 34.0224 31.8612C33.9203 32.05 33.831 32.2152 33.7545 32.3568C33.6885 32.4967 33.6397 32.5692 33.6081 32.5741C33.4711 32.5957 33.3393 32.5786 33.2127 32.5229C33.0967 32.4656 33.0001 32.3566 32.923 32.1959C32.8128 32.0297 32.777 31.7816 32.8155 31.4517C32.8526 31.1111 32.8864 30.6739 32.9171 30.1401C32.9364 29.9751 32.9459 29.8548 32.9458 29.7793C32.9457 29.7037 32.9508 29.6273 32.9612 29.5501C32.9806 29.4607 33.0097 29.3266 33.0486 29.1477C33.0979 28.9672 33.172 28.6965 33.2707 28.3355C33.3155 28.1233 33.3363 27.9689 33.3331 27.8722C33.339 27.7633 33.3388 27.6877 33.3327 27.6455C33.3175 27.5399 33.3309 27.4461 33.3729 27.3639C33.4254 27.2801 33.4916 27.2157 33.5713 27.1708C33.651 27.1258 33.7293 27.1081 33.8061 27.1177C33.9251 27.1206 34.0336 27.1629 34.1316 27.2447C34.2401 27.3248 34.3119 27.4485 34.3468 27.6157C34.3756 27.7408 34.3819 27.8585 34.3655 27.9691C34.3476 28.0691 34.329 28.1638 34.3095 28.2532L34.1974 28.7081C34.1615 28.8325 34.1174 29.0122 34.0651 29.2471C34.0128 29.4821 33.9688 29.6995 33.933 29.8995C33.8957 30.0889 33.8794 30.1994 33.8839 30.2311C33.899 30.2611 33.9352 30.25 33.9923 30.1979C34.0479 30.1351 34.117 30.0541 34.1997 29.9547C34.2913 29.8432 34.3837 29.7369 34.4769 29.6359C34.6677 29.39 34.8864 29.1505 35.1329 28.9174C35.3884 28.6721 35.6327 28.4609 35.8658 28.284C36.0989 28.107 36.2809 27.9866 36.4118 27.9229C36.5909 27.8947 36.7166 27.9073 36.789 27.9608C36.8719 28.0125 37.0099 28.1096 37.2029 28.252C37.2873 28.3143 37.3432 28.4027 37.3705 28.5172C37.3978 28.6317 37.4085 28.7433 37.4027 28.8522C37.3983 28.8961 37.3819 29.0066 37.3536 29.1838C37.3238 29.3505 37.2932 29.5118 37.2619 29.6679C37.2411 29.8223 37.2307 29.8995 37.2307 29.8995C37.2307 29.8995 37.281 29.8377 37.3817 29.7139C37.4929 29.5884 37.6138 29.4561 37.7446 29.3167C37.8738 29.1669 37.9707 29.0545 38.0353 28.9795C38.4006 28.5983 38.7299 28.3414 39.0233 28.2089C39.3166 28.0764 39.5803 28.1484 39.8142 28.4247C39.9574 28.521 40.0389 28.6377 40.0587 28.775C40.0891 28.9106 40.1287 29.1473 40.1774 29.4851C40.2078 29.6207 40.242 29.7827 40.2799 29.971C40.3179 30.1594 40.3536 30.3319 40.387 30.4886C40.4294 30.6331 40.4635 30.7196 40.4891 30.7479C40.5268 30.7852 40.5901 30.813 40.679 30.8314C40.7769 30.8377 40.9011 30.8397 41.0517 30.8377C41.2128 30.8339 41.3175 30.8877 41.3659 30.9988C41.4143 31.11 41.3618 31.2316 41.2085 31.3637C41.0641 31.4835 40.8964 31.5531 40.7052 31.5723C40.514 31.5916 40.3408 31.5864 40.1857 31.5568Z" fill="black"/>
<path d="M40.8425 35.6499C40.5891 35.7352 40.307 35.7577 39.9963 35.7173C39.6965 35.6872 39.4326 35.6075 39.2045 35.4782C38.9657 35.3494 38.8276 35.2004 38.7903 35.0312C38.7776 34.9676 38.7968 34.8974 38.8477 34.8206C38.888 34.7442 38.945 34.6884 39.0186 34.6533C39.0818 34.6293 39.1411 34.6482 39.1964 34.7099C39.2833 34.7597 39.4399 34.8172 39.666 34.8824C39.8925 34.9584 40.1434 34.9639 40.4189 34.899C40.6623 34.8354 40.8976 34.6815 41.1247 34.4371C41.3625 34.1923 41.5528 33.9655 41.6957 33.7567C41.7769 33.6252 41.9136 33.3899 42.1058 33.051C42.2979 32.712 42.4944 32.3408 42.6952 31.9374C42.9063 31.5229 43.0811 31.142 43.2197 30.7945C43.249 30.7079 43.2831 30.6051 43.322 30.486C43.361 30.367 43.4113 30.2688 43.4729 30.1915C43.5328 30.0609 43.5825 29.9414 43.6217 29.833C43.6714 29.7134 43.7008 29.6322 43.7102 29.5891C43.7191 29.5353 43.7638 29.4267 43.844 29.2632C43.9243 29.0997 43.9992 28.9364 44.0688 28.7734C44.1171 28.6113 44.1897 28.3734 44.2866 28.0597C44.3834 27.7461 44.4822 27.4911 44.5827 27.2947C44.703 27.0441 44.798 26.8427 44.868 26.6903C44.9482 26.5268 45.0358 26.4271 45.1307 26.3911C45.2243 26.3124 45.2871 26.2724 45.319 26.2711C45.3617 26.2693 45.4426 26.298 45.5618 26.357C45.6937 26.4796 45.7777 26.6042 45.8136 26.7308C45.8493 26.8467 45.838 26.9967 45.7797 27.1806C45.7317 27.3534 45.6325 27.5924 45.482 27.8976C45.4048 28.1571 45.3162 28.3956 45.2163 28.6133C45.1267 28.8199 45.0563 28.9563 45.005 29.0225C44.9557 29.1526 44.8963 29.2992 44.8267 29.4623C44.7674 29.6142 44.7131 29.7553 44.6638 29.8854C44.4854 30.3199 44.331 30.6733 44.2008 30.9457C44.0706 31.218 43.9557 31.4683 43.8562 31.6967C43.7566 31.925 43.6529 32.1909 43.545 32.4943C43.3122 32.8991 43.0841 33.2823 42.8606 33.6439C42.6482 34.0157 42.4189 34.3616 42.1728 34.6815C42.0692 34.7819 41.9395 34.8994 41.7837 35.034C41.6278 35.1687 41.4663 35.2929 41.2991 35.4066C41.1426 35.5199 40.9904 35.601 40.8425 35.6499ZM42.8805 31.7215C42.72 31.7068 42.5571 31.6176 42.3919 31.4537C42.2374 31.2893 42.1145 31.113 42.0232 30.9247C41.9319 30.7363 41.8956 30.5991 41.9143 30.5129C41.9126 30.4596 41.9113 30.4169 41.9103 30.3849C41.9093 30.353 41.9088 30.337 41.9088 30.337C41.8448 30.3396 41.7837 30.2621 41.7254 30.1044C41.6778 29.9463 41.6393 29.7397 41.61 29.4848C41.5807 29.2298 41.5562 28.9586 41.5365 28.6712C41.5275 28.3833 41.5296 28.111 41.5429 27.8542C41.5799 27.6712 41.595 27.4731 41.5884 27.2598C41.5813 27.036 41.5812 26.8598 41.5878 26.7314C41.5718 26.5613 41.5843 26.4487 41.6253 26.3936C41.6659 26.3278 41.707 26.2781 41.7487 26.2443C42.0431 26.1039 42.2427 26.1756 42.3476 26.4594C42.4629 26.7322 42.5059 27.2535 42.4766 28.0233C42.4687 28.4507 42.482 28.8771 42.5167 29.3027C42.5513 29.7283 42.6216 30.099 42.7276 30.4148C42.8441 30.7302 42.9949 30.9427 43.1797 31.0524C43.2556 31.092 43.2948 31.149 43.2971 31.2237C43.2995 31.2983 43.2806 31.3791 43.2407 31.4662C43.2004 31.5426 43.1438 31.6091 43.0708 31.6655C43.0082 31.7108 42.9448 31.7295 42.8805 31.7215Z" fill="black"/>
<path d="M57.9784 33.0494C57.7675 33.0174 57.6001 32.9489 57.4763 32.8438C57.3542 32.7282 57.2623 32.5579 57.2006 32.3328C57.1817 32.1789 57.1706 32.01 57.1672 31.826C57.176 31.6332 57.1929 31.4578 57.2179 31.2997C57.2445 31.1311 57.2777 31.0229 57.3177 30.975C57.3665 30.9393 57.394 30.8679 57.4001 30.7609C57.4184 30.645 57.4375 30.5239 57.4574 30.3974C57.4802 30.1851 57.4457 30.0612 57.3541 30.0258C57.2747 29.9814 57.1432 29.9938 56.9595 30.0631C56.7514 30.1502 56.4786 30.2707 56.1411 30.4245C55.8054 30.5678 55.4505 30.7298 55.0764 30.9105C54.7129 31.0928 54.3635 31.2879 54.0283 31.4961C53.7564 31.7138 53.5832 31.8871 53.5089 32.0161C53.4468 32.1362 53.3735 32.1898 53.2891 32.177C53.1981 32.2064 53.1235 32.2004 53.0652 32.1592C53.0191 32.1091 52.95 32.0339 52.8578 31.9336C52.7973 31.8382 52.7359 31.748 52.6737 31.663C52.6132 31.5675 52.5757 31.4971 52.5613 31.4518C52.5696 31.3991 52.6029 31.2909 52.6611 31.1271C52.7194 30.9633 52.7829 30.8003 52.8517 30.6381C52.931 30.4775 52.9854 30.3725 53.0148 30.323C53.0675 30.331 53.118 30.2847 53.1663 30.1841C53.2251 30.0852 53.3067 29.9789 53.411 29.8652C53.4521 29.742 53.5314 29.5814 53.649 29.3834C53.7789 29.1766 53.894 28.9944 53.9944 28.837C54.182 28.6065 54.3154 28.411 54.3948 28.2504C54.4847 28.0914 54.5601 27.8871 54.6211 27.6374C54.6172 27.5937 54.6336 27.5584 54.6702 27.5316C54.7085 27.4942 54.7487 27.4787 54.7909 27.4851C54.8886 27.4136 54.9921 27.4077 55.1015 27.4675C55.2125 27.5166 55.3055 27.6116 55.3804 27.7525C55.5304 28.0341 55.5626 28.3087 55.4772 28.5762C55.404 28.8349 55.1754 29.1886 54.7914 29.6375C54.6909 29.7948 54.6122 29.9178 54.555 30.0062C54.5101 30.0857 54.4834 30.1518 54.4751 30.2045C54.4751 30.2045 54.5337 30.1756 54.6508 30.1178C54.7784 30.0616 54.9183 29.9965 55.0703 29.9225C55.2346 29.8395 55.3631 29.778 55.4558 29.7381C55.5168 29.6934 55.6531 29.617 55.8645 29.5088C56.076 29.4006 56.2972 29.2992 56.528 29.2048C56.7711 29.1013 56.9471 29.0471 57.0558 29.042C57.1469 29.0126 57.2423 28.9893 57.3422 28.9721C57.4438 28.9444 57.5157 28.9337 57.5579 28.9401C57.6422 28.9528 57.7402 29.0162 57.8518 29.1302C57.9756 29.2353 58.0855 29.3598 58.1816 29.5039C58.2793 29.6373 58.3321 29.7478 58.3398 29.8353C58.3332 29.8774 58.3265 29.9196 58.3199 29.9617C58.3238 30.0055 58.3277 30.0492 58.3316 30.093C58.3521 30.2363 58.3441 30.4239 58.3076 30.6557C58.2815 30.8891 58.243 31.099 58.192 31.2855C58.1409 31.4719 58.0866 31.577 58.0288 31.6006C58.0288 31.6006 58.0264 31.6164 58.0214 31.648C58.0286 31.6707 58.0533 31.6852 58.0955 31.6916C58.0888 31.7337 58.0847 31.7601 58.083 31.7706C58.0303 31.7626 58.0017 31.8069 57.9973 31.9033C57.9945 31.9892 58.0112 32.0888 58.0473 32.2021C58.0939 32.3171 58.1439 32.411 58.1972 32.4838C58.3038 32.6294 58.3374 32.7585 58.298 32.8712C58.2603 32.9734 58.1538 33.0328 57.9784 33.0494Z" fill="black"/>
<path d="M59.7241 33.8268C59.7055 33.7334 59.671 33.6577 59.6205 33.5998C59.5729 33.5316 59.5547 33.4769 59.566 33.4358C59.5773 33.3946 59.5835 33.3521 59.5845 33.3082C59.5986 33.2567 59.5907 33.2049 59.5609 33.1525C59.5263 33.0769 59.5696 32.9394 59.6907 32.7402C59.8147 32.5306 59.9925 32.286 60.2242 32.0063C60.4587 31.7162 60.7233 31.4178 61.0178 31.1109C61.1227 31.0509 61.2347 30.9653 61.3538 30.8539C61.4729 30.7426 61.5587 30.6719 61.6112 30.6419C61.6225 30.6008 61.6478 30.569 61.6872 30.5465C61.7294 30.5137 61.771 30.5029 61.8122 30.5141L61.8376 30.4216C61.8518 30.3701 61.9221 30.2953 62.0487 30.197C62.1855 30.1015 62.3458 30.0013 62.5295 29.8964C62.716 29.7813 62.9048 29.6778 63.0959 29.586C63.2899 29.4839 63.4469 29.4159 63.5667 29.3822C63.8225 29.2968 64.0678 29.2695 64.3028 29.3001C64.548 29.3335 64.7346 29.4394 64.8626 29.6178C64.885 29.6571 64.9224 29.7224 64.9746 29.814C65.0269 29.9056 65.0867 30.0102 65.1539 30.1279C65.2342 30.2381 65.3132 30.3535 65.3907 30.474L65.8221 31.1382L65.3323 31.8342C65.0854 32.2093 64.9505 32.5595 64.9275 32.8848C64.9148 33.213 64.9442 33.5083 65.0159 33.7709C65.0363 33.898 65.1096 34.034 65.2357 34.1787C65.3722 34.3263 65.5096 34.4299 65.6481 34.4896C65.7276 34.5222 65.7964 34.5741 65.8543 34.645C65.9122 34.716 65.9256 34.8081 65.8946 34.9212C65.8663 35.0241 65.8231 35.1008 65.765 35.1513C65.7069 35.2019 65.6235 35.2234 65.5149 35.2161C65.1639 35.165 64.8674 34.9961 64.6253 34.7094C64.3936 34.4255 64.2192 34.0134 64.1021 33.4732C64.0779 33.4003 64.0524 33.2718 64.0255 33.0877C64.0118 32.8961 64.0068 32.7731 64.0107 32.7189C63.9554 32.7592 63.8513 32.8359 63.6985 32.9492C63.5486 33.0522 63.4342 33.1261 63.3555 33.1711C62.4212 33.7133 61.651 34.0403 61.0451 34.1522C60.4522 34.2565 60.0119 34.1481 59.7241 33.8268ZM60.5173 33.1137C60.4975 33.1857 60.6056 33.215 60.8416 33.2017C61.0907 33.1809 61.3721 33.1025 61.686 32.9667C62.118 32.7634 62.5584 32.5292 63.0073 32.2642C63.4665 32.002 63.8466 31.746 64.1475 31.4961L64.6398 31.0328C64.6018 30.7683 64.5324 30.5782 64.4315 30.4624C64.3437 30.3391 64.2586 30.2662 64.1762 30.2439C64.0424 30.2076 63.8078 30.2765 63.4723 30.4507C63.1471 30.6277 62.7788 30.8814 62.3672 31.2118C61.9556 31.5422 61.5482 31.918 61.1449 32.3391C60.9855 32.5168 60.8377 32.6922 60.7017 32.8653C60.5788 33.0309 60.5173 33.1137 60.5173 33.1137Z" fill="black"/>
<path d="M72.7807 38.469C72.7392 38.4292 72.685 38.3498 72.6181 38.2307C72.5512 38.1116 72.5211 37.9441 72.5278 37.7282C72.5386 37.5024 72.6139 37.2164 72.7537 36.8703C72.8835 36.5776 72.9824 36.3472 73.0503 36.1791C73.1282 36.0149 73.1275 35.9169 73.0484 35.8849C72.9693 35.8529 72.7841 35.87 72.4927 35.9363C72.2152 35.9966 71.8811 36.0974 71.4904 36.2385C71.0997 36.3797 70.6921 36.5485 70.2676 36.745C70.1247 36.8138 69.9839 36.8776 69.845 36.9365C69.72 36.9896 69.6071 37.0129 69.5061 37.0066C69.4091 36.9904 69.3192 36.9138 69.2366 36.7768L69.1273 36.5773C69.0979 36.5078 69.0882 36.4464 69.0983 36.3929C69.1124 36.3296 69.1433 36.2673 69.1911 36.2061L69.9279 35.365C70.23 35.0729 70.4427 34.8598 70.566 34.7256C70.6932 34.5814 70.7649 34.4896 70.7809 34.45C70.8008 34.4006 70.794 34.3748 70.7603 34.3727C70.6772 34.3506 70.5386 34.3521 70.3444 34.3771C70.1542 34.3922 70.0184 34.4293 69.937 34.4885C69.8974 34.4725 69.8201 34.493 69.705 34.55C69.59 34.607 69.4571 34.6511 69.3065 34.6822C69.1893 34.7729 68.9889 34.8702 68.7053 34.9741C68.4316 35.082 68.1559 35.1949 67.8782 35.3127C67.7057 35.3695 67.5232 35.451 67.3307 35.5572C67.148 35.6675 66.9883 35.7639 66.8513 35.8466C66.7242 35.9333 66.6459 35.9706 66.6162 35.9586C66.4877 35.9066 66.383 35.824 66.3022 35.7108C66.2313 35.6016 66.2031 35.4579 66.2176 35.2796C66.2064 35.0795 66.3003 34.8471 66.4993 34.5824C66.7023 34.3078 66.9512 33.9483 67.2459 33.5037C67.3454 33.3713 67.4141 33.2725 67.452 33.2073C67.4899 33.1421 67.5327 33.0788 67.5804 33.0176C67.6421 32.9505 67.7345 32.8498 67.8578 32.7156C67.991 32.5853 68.1907 32.39 68.457 32.1295C68.6022 31.9696 68.6977 31.8471 68.7436 31.7621C68.8033 31.6712 68.8412 31.606 68.8572 31.5664C68.8971 31.4675 68.9558 31.3935 69.0332 31.3443C69.1206 31.299 69.2098 31.2776 69.3009 31.2799C69.392 31.2822 69.4681 31.3073 69.5293 31.355C69.6301 31.4188 69.7021 31.5112 69.7452 31.6322C69.7982 31.7572 69.7977 31.9008 69.7437 32.063C69.7056 32.1857 69.6518 32.2905 69.5821 32.3774C69.5165 32.4544 69.4528 32.5265 69.3912 32.5936L69.0662 32.9281C68.9728 33.0169 68.8445 33.1492 68.6815 33.3249C68.5185 33.5005 68.3713 33.6654 68.24 33.8194C68.1128 33.9635 68.0431 34.0504 68.0311 34.0801C68.029 34.1138 68.0657 34.1228 68.141 34.1073C68.2203 34.0818 68.3204 34.0475 68.4414 34.0044C68.5763 33.9554 68.7091 33.9113 68.84 33.8722C69.1276 33.7584 69.4359 33.6645 69.7649 33.5904C70.1079 33.5105 70.424 33.4543 70.7132 33.4217C71.0025 33.3891 71.2194 33.379 71.364 33.3914C71.5321 33.4594 71.6338 33.5351 71.6692 33.6184C71.7144 33.7058 71.7842 33.8605 71.8784 34.0828C71.9197 34.18 71.9233 34.285 71.8892 34.3978C71.8551 34.5106 71.8082 34.6124 71.7484 34.7033C71.7226 34.7389 71.6529 34.8258 71.5396 34.964C71.4302 35.0923 71.3228 35.2157 71.2174 35.3342C71.1219 35.4567 71.0741 35.5179 71.0741 35.5179C71.0741 35.5179 71.1485 35.4904 71.2972 35.4355C71.4558 35.3846 71.6264 35.3328 71.8088 35.28C71.9952 35.2173 72.135 35.1703 72.2282 35.1389C72.7337 34.9982 73.1459 34.9463 73.4646 34.9831C73.7834 35.02 73.9738 35.2178 74.0359 35.5766C74.1106 35.7334 74.1219 35.8761 74.07 36.0046C74.0279 36.1372 73.9429 36.3617 73.815 36.6782C73.773 36.8107 73.7209 36.968 73.6589 37.15C73.5968 37.3321 73.5407 37.4992 73.4907 37.6516C73.4545 37.798 73.4403 37.8901 73.4481 37.9278C73.4618 37.9793 73.5022 38.0359 73.5693 38.0976C73.6503 38.1534 73.756 38.2191 73.8865 38.2949C74.0268 38.3747 74.0898 38.4749 74.0755 38.5957C74.0612 38.7165 73.955 38.7944 73.7568 38.8293C73.5725 38.8583 73.3934 38.8318 73.2194 38.75C73.0454 38.6681 72.8991 38.5744 72.7807 38.469Z" fill="black"/>
<path d="M75.8012 40.5694C75.5133 40.6311 75.2305 40.6046 74.9531 40.4898C74.685 40.3801 74.4571 40.2073 74.2694 39.9713C74.0867 39.726 73.9767 39.4474 73.9392 39.1354C73.8915 38.8422 73.9153 38.5514 74.0105 38.2631C74.1108 37.9655 74.2963 37.6111 74.5671 37.1999C74.793 36.8492 75.1079 36.5471 75.5118 36.2934C75.9207 36.0304 76.349 35.8325 76.7966 35.6999C77.2535 35.5724 77.6576 35.5314 78.0088 35.5771C78.2 35.5598 78.3399 35.5814 78.4285 35.6418C78.5315 35.698 78.681 35.7916 78.8769 35.9227C79.0771 36.0682 79.2135 36.1972 79.2861 36.3097C79.368 36.4272 79.4164 36.5508 79.4313 36.6804C79.4957 36.8977 79.5132 37.0895 79.484 37.2558C79.4598 37.4127 79.4122 37.5568 79.3412 37.6882C79.1921 37.8742 78.9147 38.051 78.5089 38.2185C78.1175 38.3818 77.6791 38.4526 77.1936 38.431C76.9521 38.3844 76.7121 38.29 76.4736 38.1479C76.2352 38.0058 76.0668 37.835 75.9684 37.6356C75.8311 37.4636 75.7064 37.4139 75.5944 37.4864C75.4875 37.5496 75.3092 37.7562 75.0594 38.106C74.8292 38.4421 74.7153 38.7202 74.7177 38.9401C74.7251 39.1507 74.8008 39.3134 74.9448 39.4284C75.1118 39.568 75.2418 39.6753 75.3347 39.7502C75.442 39.8208 75.6006 39.8526 75.8106 39.8456C76.0111 39.8334 76.1327 39.8329 76.1752 39.8439C76.2228 39.8456 76.2611 39.8421 76.29 39.8335C76.3333 39.8207 76.4271 39.7929 76.5715 39.7501C76.6726 39.7202 76.7494 39.7013 76.8021 39.6936C76.8599 39.6765 76.9122 39.6807 76.959 39.7062C77.0058 39.7317 77.0353 39.7782 77.0474 39.8455C77.0646 39.9034 77.0868 39.952 77.1141 39.9912C77.2078 40.0422 77.1961 40.1088 77.079 40.1907C76.9713 40.2778 76.7994 40.3603 76.5634 40.4381C76.3323 40.5066 76.0783 40.5503 75.8012 40.5694ZM77.4002 37.5778C77.5286 37.587 77.6718 37.58 77.8298 37.5569C77.9929 37.5243 78.1399 37.4768 78.2706 37.4144C78.4157 37.3478 78.5086 37.2769 78.5492 37.2018C78.6202 37.0705 78.6177 36.9294 78.5415 36.7786C78.4705 36.6184 78.2955 36.5047 78.0165 36.4377C77.8982 36.4097 77.7431 36.4163 77.5511 36.4574C77.3642 36.4891 77.1744 36.5375 76.9816 36.6025C76.7982 36.6726 76.6411 36.7389 76.5104 36.8013C76.3891 36.8688 76.3327 36.917 76.3413 36.946C76.344 37.0082 76.4033 37.0891 76.5192 37.1887C76.6402 37.279 76.7828 37.3628 76.9471 37.4402C77.1208 37.5227 77.2718 37.5686 77.4002 37.5778Z" fill="black"/>
<path d="M82.933 45.7013C82.9184 45.581 82.9337 45.4571 82.9788 45.3296C83.0322 45.2087 83.1024 45.101 83.1893 45.0066C83.2762 44.9121 83.3626 44.8444 83.4485 44.8035C83.5009 44.7361 83.5485 44.6922 83.5914 44.6718C83.6493 44.6495 83.6871 44.6182 83.7049 44.5779C83.7227 44.5376 83.7769 44.4853 83.8675 44.4209C83.9581 44.3565 84.0454 44.2964 84.1294 44.2404C84.2927 44.1519 84.4799 44.0415 84.6909 43.9091C84.9084 43.7683 85.1185 43.6284 85.3211 43.4895C85.5237 43.3505 85.6983 43.2301 85.8449 43.1284C85.9915 43.0268 86.082 42.9624 86.1166 42.9353C86.1951 42.8343 86.3047 42.8324 86.4451 42.9298C86.5717 42.9754 86.6471 43.035 86.6711 43.1083C86.7017 43.1733 86.7065 43.3062 86.6854 43.507C86.7 43.6273 86.6466 43.7482 86.5251 43.8697C86.4036 43.9912 86.2183 44.1167 85.9691 44.2461C85.8832 44.287 85.7661 44.3508 85.6177 44.4374C85.4776 44.5307 85.36 44.6212 85.2647 44.7091C85.1788 44.75 85.0617 44.8138 84.9133 44.9004C84.7798 44.9853 84.6537 45.0692 84.5352 45.1522C84.4857 45.1811 84.4198 45.2311 84.3376 45.3021C84.262 45.3646 84.1756 45.4323 84.0785 45.5051C83.9879 45.5695 83.8955 45.6188 83.8013 45.6531C83.4576 45.9389 83.2293 46.0848 83.1165 46.0909C83.0121 46.1036 82.9509 45.9737 82.933 45.7013ZM88.1376 41.5346C88.1285 41.4594 88.1366 41.3707 88.1621 41.2685C88.1941 41.1578 88.232 41.0655 88.276 40.9915C88.3266 40.9091 88.3644 40.8778 88.3895 40.8977C88.463 40.9421 88.5982 40.9334 88.795 40.8714C88.9918 40.8093 89.1211 40.7212 89.1829 40.6069C89.2091 40.5732 89.2446 40.5537 89.2893 40.5482C89.3406 40.5344 89.3863 40.5365 89.4263 40.5545C89.5791 40.5665 89.6819 40.6341 89.7347 40.7574C89.8024 40.8788 89.8258 41.04 89.8047 41.2408C89.7557 41.4604 89.6719 41.6116 89.5533 41.6947C89.4412 41.7693 89.2379 41.8397 88.9432 41.906C88.6867 41.9752 88.4975 41.9753 88.3756 41.9062C88.2621 41.8437 88.1828 41.7198 88.1376 41.5346Z" fill="black"/>
<path d="M86.4742 49.6227C86.3846 49.421 86.3208 49.2071 86.2829 48.9809C86.2523 48.7469 86.2501 48.5763 86.2764 48.4692C86.3416 48.3987 86.3966 48.3626 86.4416 48.3611C86.4939 48.3517 86.5707 48.4021 86.6722 48.5123C86.7887 48.622 86.9605 48.8132 87.1878 49.0859C87.281 49.1737 87.4047 49.2756 87.5589 49.3916C87.7131 49.5075 87.863 49.6047 88.0084 49.6831C88.1616 49.7688 88.2676 49.7954 88.3266 49.763C88.3654 49.7996 88.384 49.7952 88.3824 49.7497C88.3881 49.6964 88.3899 49.6395 88.3878 49.5789C88.3567 49.5496 88.3326 49.505 88.3155 49.4449C88.3056 49.377 88.2852 49.3284 88.2541 49.2991C88.2903 49.26 88.2913 49.1803 88.2571 49.0601C88.2379 48.9395 88.2039 48.8269 88.1552 48.7224C88.1147 48.4205 88.083 48.1561 88.0601 47.9294C88.0444 47.6949 88.0702 47.5726 88.1374 47.5627C88.1664 47.5314 88.1808 47.5157 88.1808 47.5157C88.1881 47.5078 88.1917 47.5039 88.1917 47.5039C88.1374 47.4527 88.1476 47.3159 88.2225 47.0933C88.3051 46.8781 88.4043 46.7078 88.5201 46.5824C88.607 46.4884 88.7427 46.3965 88.9274 46.3066C89.1192 46.209 89.3341 46.1257 89.572 46.0567C89.81 45.9878 90.0264 45.9499 90.2215 45.9431C90.4843 45.9416 90.7892 45.9651 91.1364 46.0137C91.4908 46.0545 91.8232 46.1112 92.1336 46.1838C92.4591 46.2559 92.7098 46.3382 92.8857 46.4307C93.0761 46.5075 93.2296 46.6007 93.346 46.7104C93.4703 46.8275 93.5536 46.9573 93.5961 47.0999C93.6376 47.2122 93.6532 47.3368 93.6429 47.4737C93.6477 47.61 93.6371 47.7393 93.6113 47.8615C93.6006 47.9833 93.5776 48.0789 93.5425 48.1483C93.4556 48.2424 93.3501 48.3408 93.226 48.4437C93.1092 48.5388 92.9954 48.6148 92.8848 48.6717C92.7819 48.736 92.7032 48.7425 92.6489 48.6913C92.6489 48.6913 92.6336 48.6843 92.6031 48.6702C92.5875 48.6555 92.5617 48.6678 92.5255 48.707C92.4531 48.7853 92.3117 48.8206 92.1011 48.8127C91.8595 48.7756 91.6735 48.7176 91.5431 48.6388C91.4199 48.552 91.3937 48.4468 91.4645 48.323C91.4702 48.2697 91.48 48.2276 91.4939 48.1968C91.5079 48.166 91.4993 48.1359 91.4683 48.1067C91.4683 48.1067 91.4675 48.084 91.4659 48.0385C91.4643 47.9931 91.4888 47.9429 91.5395 47.8881C91.5685 47.8567 91.6054 47.8403 91.6504 47.8387C91.7027 47.8293 91.7288 47.8246 91.7288 47.8246C91.7676 47.8612 91.8579 47.8656 91.9996 47.8379C92.1486 47.8024 92.2934 47.7557 92.4341 47.6977C92.5898 47.6392 92.6857 47.5904 92.7219 47.5512C92.7653 47.5042 92.7829 47.4694 92.7746 47.447C92.7741 47.4318 92.7427 47.395 92.6806 47.3365C92.5285 47.2811 92.3386 47.2195 92.1109 47.1515C91.8833 47.0836 91.6634 47.023 91.4512 46.9697C91.2541 46.9159 91.0955 46.8911 90.9755 46.8952C90.8938 46.9208 90.8418 46.9378 90.8196 46.9462C90.8046 46.9467 90.7816 46.9323 90.7505 46.9031C90.7795 46.8717 90.7378 46.8618 90.6256 46.8733C90.5283 46.8842 90.3938 46.9041 90.2221 46.9328C90.0581 46.9688 89.8941 47.0049 89.7302 47.0409C89.5812 47.0764 89.4695 47.1031 89.395 47.1208C89.365 47.1219 89.3022 47.1506 89.2065 47.207C89.1258 47.2629 89.0565 47.3222 88.9986 47.3849C88.8807 47.4496 88.8231 47.5199 88.8257 47.5956C88.8356 47.6636 88.8559 47.8145 88.8865 48.0486C88.9701 48.5083 89.028 48.8779 89.0603 49.1574C89.0925 49.4368 89.1077 49.6562 89.1057 49.8156C89.1037 49.9749 89.0779 50.0971 89.0283 50.1823C88.9509 50.549 88.8272 50.7694 88.657 50.8436C88.4869 50.9178 88.2536 50.9031 87.9571 50.7997C87.8432 50.7657 87.6862 50.6764 87.4859 50.5317C87.2856 50.387 87.0923 50.2268 86.9059 50.0513C86.7124 49.8836 86.5685 49.7407 86.4742 49.6227Z" fill="black"/>
<path d="M93.8006 58.1538C93.7489 57.939 93.7248 57.7168 93.7283 57.4872C93.7404 57.2511 93.769 57.0827 93.8141 56.9819C93.8908 56.9241 93.9514 56.8985 93.9958 56.9051C94.0489 56.9052 94.1152 56.9687 94.195 57.0955C94.2897 57.2245 94.424 57.4438 94.5981 57.7533C94.6738 57.8566 94.7769 57.9792 94.9075 58.1211C95.0381 58.2631 95.1678 58.3858 95.2965 58.4892C95.4315 58.6011 95.5308 58.6464 95.5946 58.6251C95.6261 58.6681 95.6452 58.6671 95.6518 58.622C95.667 58.5706 95.679 58.5148 95.6878 58.4547C95.6626 58.4203 95.647 58.372 95.641 58.3097C95.6436 58.241 95.6322 58.1895 95.607 58.1551C95.6496 58.123 95.6649 58.0447 95.6529 57.9202C95.6558 57.7978 95.6427 57.6808 95.6137 57.5691C95.6283 57.2644 95.6448 56.9982 95.6631 56.7708C95.69 56.5369 95.7373 56.4211 95.8051 56.4234C95.8392 56.3977 95.8563 56.3849 95.8563 56.3849C95.8648 56.3785 95.869 56.3752 95.869 56.3752C95.8249 56.315 95.8596 56.182 95.9732 55.9763C96.0932 55.7791 96.2213 55.6292 96.3576 55.5265C96.4598 55.4494 96.6097 55.3833 96.8072 55.328C97.0132 55.2662 97.2393 55.2228 97.4854 55.1976C97.7315 55.1725 97.9509 55.1741 98.1437 55.2025C98.4021 55.2482 98.6973 55.3262 99.0295 55.4365C99.3702 55.5404 99.6865 55.656 99.9783 55.7834C100.285 55.9129 100.516 56.0391 100.672 56.1618C100.846 56.2717 100.98 56.3912 101.074 56.5202C101.175 56.6578 101.234 56.8007 101.25 56.9488C101.27 57.0669 101.263 57.1925 101.228 57.3255C101.208 57.4607 101.175 57.5862 101.127 57.7019C101.095 57.8199 101.055 57.91 101.008 57.9721C100.906 58.0491 100.785 58.1272 100.644 58.2062C100.512 58.2789 100.387 58.3333 100.268 58.3695C100.155 58.4143 100.077 58.4066 100.033 58.3464C100.033 58.3464 100.019 58.3367 99.9915 58.3173C99.9789 58.3001 99.9513 58.3075 99.9087 58.3396C99.8235 58.4038 99.6782 58.4131 99.4728 58.3675C99.2422 58.2875 99.07 58.197 98.9561 58.0958C98.8508 57.9882 98.844 57.8798 98.9358 57.7706C98.951 57.7191 98.9682 57.6794 98.9874 57.6516C99.0067 57.6237 99.0037 57.5926 98.9785 57.5582C98.9785 57.5582 98.9818 57.5356 98.9884 57.4906C98.995 57.4455 99.0282 57.4005 99.0878 57.3556C99.1219 57.3299 99.1612 57.3204 99.2057 57.3269C99.2587 57.327 99.2852 57.3271 99.2852 57.3271C99.3167 57.3701 99.4046 57.3907 99.5487 57.3889C99.7014 57.3807 99.8521 57.3607 100.001 57.3289C100.164 57.2992 100.267 57.2684 100.31 57.2363C100.361 57.1978 100.384 57.1667 100.38 57.1431C100.382 57.1281 100.358 57.0861 100.308 57.0173C100.168 56.9354 99.9931 56.8405 99.7817 56.7327C99.5704 56.6248 99.3653 56.5256 99.1666 56.435C98.9827 56.3465 98.8314 56.2935 98.7128 56.2761C98.6279 56.2866 98.5738 56.294 98.5504 56.2982C98.5356 56.296 98.5156 56.2777 98.4903 56.2433C98.5244 56.2176 98.4853 56.2004 98.373 56.1915C98.2755 56.1848 98.1398 56.1802 97.966 56.1776C97.7985 56.1836 97.631 56.1897 97.4634 56.1957C97.3107 56.2039 97.1962 56.21 97.1198 56.2142C97.0902 56.2098 97.0233 56.2268 96.9192 56.2652C96.8299 56.3057 96.7512 56.3517 96.683 56.403C96.5555 56.4456 96.4863 56.5045 96.4752 56.5796C96.4727 56.6483 96.4654 56.8007 96.4534 57.0367C96.4526 57.5047 96.4429 57.8792 96.4243 58.1603C96.4056 58.4415 96.3809 58.6604 96.3503 58.817C96.3197 58.9736 96.2723 59.0894 96.2083 59.1643C96.0662 59.5117 95.9049 59.7066 95.7245 59.7491C95.544 59.7916 95.3175 59.7352 95.0449 59.58C94.9393 59.5261 94.8011 59.4098 94.6305 59.2313C94.4598 59.0527 94.2988 58.8602 94.1474 58.6537C93.9875 58.4537 93.8719 58.2871 93.8006 58.1538Z" fill="black"/>
<path d="M97.46 63.3317C97.3896 63.2122 97.3555 63.1019 97.3577 63.0006C97.3654 62.9086 97.3804 62.7871 97.4028 62.6361C97.4821 62.3507 97.5821 62.1213 97.7028 61.948C97.8326 61.7691 97.9831 61.6463 98.1542 61.5796C98.2434 61.5628 98.3172 61.5304 98.3755 61.4824C98.4484 61.4381 98.4849 61.4159 98.4849 61.4159C98.5033 61.3422 98.5226 61.3118 98.5425 61.3247C98.5716 61.332 98.6097 61.3337 98.657 61.3299C98.6895 61.385 98.7505 61.3729 98.8399 61.2935C98.9019 61.2308 99.0831 61.1705 99.3833 61.1127C99.6835 61.0549 99.9836 61.0284 100.284 61.0331C100.407 61.0328 100.574 61.0434 100.785 61.065C101.005 61.081 101.226 61.1089 101.448 61.1489C101.684 61.1924 101.88 61.2416 102.036 61.2964C102.363 61.4097 102.623 61.5259 102.817 61.645C103.011 61.7642 103.191 61.9109 103.356 62.0854C103.52 62.2598 103.624 62.3838 103.668 62.4573C103.716 62.54 103.709 62.6946 103.644 62.9211C103.678 63.1879 103.658 63.406 103.584 63.5755C103.516 63.7542 103.367 63.9322 103.138 64.1095C102.88 64.3034 102.552 64.4717 102.154 64.6144C101.77 64.7608 101.209 64.8083 100.473 64.7568C100.01 64.7267 99.6392 64.665 99.3614 64.5719C99.0927 64.4732 98.8023 64.3377 98.4903 64.1655C98.249 64.0502 98.0503 63.9338 97.8945 63.8164C97.7477 63.6935 97.6029 63.5319 97.46 63.3317ZM99.6891 63.7732C100.065 63.844 100.4 63.8772 100.695 63.8728C100.995 63.8775 101.349 63.8371 101.756 63.7514C101.878 63.7271 102.015 63.6752 102.166 63.5957C102.326 63.5107 102.465 63.4201 102.582 63.3241C102.713 63.2318 102.771 63.1525 102.757 63.0863C102.756 62.9372 102.696 62.7929 102.576 62.6533C102.466 62.5082 102.279 62.3909 102.016 62.3014C101.611 62.1607 101.168 62.0928 100.688 62.0977C100.218 62.0971 99.6992 62.1315 99.1335 62.201C98.7242 62.2628 98.441 62.3915 98.2839 62.5869C98.1413 62.7861 98.1732 62.9976 98.3795 63.2217C98.6004 63.4493 99.0369 63.6332 99.6891 63.7732Z" fill="black"/>
<path d="M99.8318 68.5117C99.6965 68.3526 99.6633 68.1845 99.7322 68.0074C99.8057 67.8399 99.9668 67.6825 100.216 67.5352C100.464 67.3878 100.784 67.2649 101.174 67.1663C101.312 67.1575 101.44 67.1414 101.559 67.1181C101.688 67.09 101.785 67.0594 101.852 67.0262C101.957 66.998 102.114 66.9677 102.323 66.9353C102.542 66.8981 102.767 66.8634 103 66.8311C103.233 66.7989 103.44 66.7736 103.62 66.7554C103.815 66.7421 103.936 66.7356 103.984 66.7359C104.002 66.7744 104.052 66.7914 104.132 66.7871C104.213 66.7827 104.287 66.764 104.354 66.7308C104.43 66.6928 104.523 66.6645 104.632 66.646C104.746 66.637 104.832 66.6423 104.888 66.6618C104.936 66.6381 104.993 66.6216 105.06 66.6124C105.14 66.608 105.2 66.5964 105.238 66.5774C105.276 66.5584 105.319 66.5491 105.366 66.5493C105.419 66.5592 105.464 66.5547 105.502 66.5357C105.658 66.5414 105.896 66.5307 106.214 66.5037C106.546 66.4816 106.909 66.45 107.304 66.409C107.703 66.3777 108.092 66.3391 108.472 66.2932C108.852 66.2474 109.168 66.2036 109.42 66.1618C109.686 66.1249 109.843 66.0946 109.891 66.0709C109.968 66.033 110.034 66.0237 110.091 66.0432C110.147 66.0627 110.194 66.111 110.231 66.1879C110.274 66.2026 110.309 66.2268 110.337 66.2605C110.369 66.3039 110.395 66.3448 110.413 66.3833C110.413 66.3833 110.403 66.412 110.384 66.4694C110.364 66.5269 110.334 66.6131 110.295 66.728C110.265 66.8382 110.209 66.9194 110.127 66.9717C110.051 67.0337 109.955 67.0931 109.84 67.15C109.716 67.2117 109.599 67.2518 109.49 67.2704C109.381 67.289 109.214 67.3 108.991 67.3036C108.769 67.3071 108.422 67.3124 107.952 67.3194C107.725 67.3373 107.504 67.3457 107.29 67.3445C107.087 67.3385 106.966 67.345 106.927 67.364C106.889 67.383 106.823 67.3922 106.728 67.3917C106.637 67.4008 106.526 67.4145 106.393 67.433C106.298 67.4325 106.158 67.4365 105.973 67.445C105.797 67.4488 105.605 67.455 105.396 67.4634C105.202 67.4767 105.031 67.4901 104.883 67.5037C104.746 67.5125 104.667 67.5217 104.648 67.5312C104.61 67.5501 104.569 67.5643 104.527 67.5737C104.488 67.5926 104.441 67.5924 104.384 67.5729C104.366 67.5344 104.326 67.5246 104.264 67.5434C104.216 67.5671 104.192 67.579 104.192 67.579C104.097 67.6264 103.807 67.6752 103.322 67.7252C102.723 67.8322 102.171 67.9275 101.667 68.011C101.168 68.1042 100.785 68.2172 100.517 68.35C100.288 68.4639 100.133 68.535 100.052 68.5633C99.9801 68.5869 99.9068 68.5697 99.8318 68.5117Z" fill="black"/>
<path d="M101.947 73.1184C101.898 72.9887 101.884 72.8741 101.903 72.7747C101.926 72.6853 101.962 72.5682 102.01 72.4232C102.137 72.1555 102.275 71.9465 102.423 71.7963C102.582 71.6423 102.751 71.547 102.931 71.5105C103.022 71.5092 103.1 71.4899 103.166 71.4526C103.245 71.4213 103.285 71.4057 103.285 71.4057C103.316 71.3363 103.34 71.3096 103.357 71.3256C103.385 71.3378 103.422 71.346 103.469 71.3504C103.492 71.4103 103.554 71.4087 103.655 71.3458C103.727 71.2946 103.916 71.2662 104.222 71.2605C104.527 71.2548 104.827 71.28 105.122 71.3359C105.244 71.3567 105.407 71.3958 105.611 71.453C105.825 71.5064 106.037 71.5717 106.249 71.6489C106.474 71.7322 106.659 71.8142 106.803 71.8949C107.106 72.0624 107.343 72.2214 107.513 72.372C107.684 72.5225 107.836 72.6978 107.968 72.8979C108.101 73.0979 108.182 73.2378 108.212 73.3177C108.246 73.4075 108.212 73.5585 108.109 73.7707C108.097 74.0394 108.04 74.2509 107.938 74.4054C107.841 74.5699 107.664 74.7198 107.407 74.8552C107.121 75.0024 106.769 75.1122 106.351 75.1847C105.948 75.2633 105.388 75.2143 104.672 75.0377C104.22 74.9288 103.866 74.8048 103.608 74.6655C103.36 74.5223 103.097 74.3392 102.819 74.1162C102.601 73.9613 102.426 73.8127 102.292 73.6704C102.169 73.5241 102.054 73.3401 101.947 73.1184ZM104.067 73.9345C104.426 74.0685 104.75 74.1585 105.041 74.2045C105.336 74.2605 105.691 74.2811 106.108 74.2663C106.232 74.2632 106.375 74.2354 106.538 74.1829C106.71 74.1265 106.862 74.0609 106.994 73.9863C107.139 73.9177 107.21 73.8496 107.207 73.7819C107.232 73.6348 107.197 73.4822 107.103 73.3243C107.019 73.1624 106.855 73.0149 106.611 72.8817C106.237 72.6739 105.812 72.5314 105.339 72.4542C104.875 72.3731 104.359 72.3184 103.789 72.2903C103.376 72.2812 103.075 72.3595 102.886 72.5253C102.712 72.6972 102.707 72.9111 102.872 73.1671C103.051 73.4292 103.449 73.685 104.067 73.9345Z" fill="black"/>
<path d="M106.287 78.8834C106.156 78.6105 106.241 78.38 106.543 78.1917C106.845 78.0035 107.303 77.8976 107.916 77.874C108.056 77.8997 108.188 77.9167 108.312 77.925C108.446 77.9302 108.549 77.9223 108.621 77.9014C108.765 77.9036 108.933 77.9101 109.124 77.9209C109.329 77.9391 109.518 77.9617 109.691 77.9887C109.875 78.0128 109.997 78.0328 110.056 78.0487C110.068 78.0898 110.115 78.1205 110.198 78.1406C110.284 78.1711 110.363 78.1758 110.434 78.1549C110.516 78.131 110.613 78.1195 110.724 78.1204C110.837 78.1316 110.921 78.1518 110.973 78.1809C111.024 78.166 111.086 78.1701 111.159 78.1932C111.232 78.2164 111.289 78.222 111.33 78.21C111.371 78.1981 111.409 78.1979 111.446 78.2095C111.485 78.2313 111.525 78.2363 111.566 78.2243C111.755 78.269 112.029 78.3169 112.386 78.3681C112.757 78.4265 113.141 78.4754 113.539 78.5146C113.94 78.5641 114.293 78.5998 114.598 78.6218C114.903 78.6439 115.086 78.6459 115.148 78.6279C115.235 78.6246 115.305 78.6375 115.358 78.6666C115.41 78.6958 115.437 78.7544 115.44 78.8427C115.482 78.8748 115.508 78.9114 115.52 78.9525C115.542 78.9907 115.558 79.0303 115.569 79.0714C115.569 79.0714 115.553 79.0928 115.521 79.1356C115.491 79.1887 115.445 79.2632 115.384 79.3591C115.335 79.4622 115.266 79.5324 115.176 79.5696C115.087 79.6068 114.981 79.6434 114.858 79.6793C114.661 79.7258 114.421 79.7182 114.138 79.6564C113.855 79.5945 113.542 79.5247 113.2 79.447C112.977 79.4011 112.764 79.3521 112.562 79.3002C112.362 79.2585 112.241 79.2437 112.201 79.2556C112.16 79.2676 112.092 79.265 111.999 79.2478C111.906 79.2306 111.791 79.2143 111.654 79.1988C111.534 79.167 111.393 79.1361 111.229 79.106C111.066 79.076 110.914 79.048 110.774 79.0223C110.648 79.0038 110.569 78.999 110.538 79.008C110.494 79.0097 110.449 79.0062 110.402 78.9976C110.359 78.9993 110.311 78.9856 110.258 78.9564C110.247 78.9153 110.209 78.8986 110.145 78.9063C110.093 78.9212 110.068 78.9287 110.068 78.9287C110.027 78.9407 109.923 78.9434 109.755 78.9369C109.6 78.9376 109.406 78.9165 109.173 78.8736C108.576 78.8368 108.102 78.8252 107.752 78.8387C107.412 78.8492 107.126 78.877 106.895 78.9223C106.644 78.9735 106.495 78.9948 106.448 78.9862C106.404 78.9879 106.35 78.9536 106.287 78.8834ZM103.599 78.7687C103.473 78.5943 103.391 78.4403 103.354 78.3067C103.33 78.1804 103.353 78.0237 103.423 77.8366C103.553 77.5874 103.719 77.4668 103.921 77.4746C104.135 77.4897 104.371 77.604 104.63 77.8174C104.794 77.9695 104.892 78.0852 104.925 78.1644C104.961 78.2539 104.964 78.4032 104.933 78.6121C104.824 78.9773 104.646 79.1738 104.399 79.2015C104.155 79.2394 103.888 79.0952 103.599 78.7687Z" fill="black"/>
</svg>
