<svg width="151" height="59" viewBox="0 0 151 59" fill="none" xmlns="http://www.w3.org/2000/svg">
<path d="M62.5182 35.6224C62.9065 35.2341 63.5142 35.1988 63.9424 35.5165L64.065 35.6224L73.5 45.0569L82.9349 35.6224C83.3232 35.2341 83.9308 35.1988 84.359 35.5165L84.4817 35.6224C84.87 36.0107 84.9053 36.6184 84.5876 37.0465L84.4817 37.1692L74.2734 47.3775C73.8851 47.7658 73.2774 47.8011 72.8492 47.4834L72.7266 47.3775L62.5182 37.1692C62.0911 36.7421 62.0911 36.0496 62.5182 35.6224Z" fill="black"/>
<path d="M11.3321 31.8763C11.1388 31.9246 10.9806 31.9592 10.8575 31.98C10.7396 32.0101 10.6807 32.0251 10.6807 32.0251C10.673 31.9682 10.64 31.9317 10.5818 31.9157C10.5329 31.8943 10.4548 31.908 10.3475 31.9566C10.161 31.9521 9.97057 31.9191 9.77627 31.8577C9.59651 31.8002 9.4353 31.7323 9.29265 31.6538C9.15 31.5753 9.03643 31.5048 8.95194 31.4424C8.80804 31.3401 8.72819 31.275 8.7124 31.2472C8.70062 31.2048 8.7326 31.1315 8.80833 31.0272C8.86826 30.895 8.92932 30.8297 8.9915 30.8313C9.06295 30.8275 9.18054 30.8834 9.34424 30.999C9.58592 31.144 9.88214 31.1905 10.2329 31.1386C10.5929 31.0815 10.9512 30.9457 11.3078 30.7311C11.6683 30.502 11.9735 30.2184 12.2233 29.8805C12.4876 29.5466 12.6193 29.2817 12.6186 29.0859C12.6219 28.8755 12.4762 28.6945 12.1817 28.5428C12.1117 28.4843 12.045 28.4425 11.9816 28.4171C11.9182 28.3918 11.8236 28.3657 11.698 28.3389C11.5817 28.3068 11.388 28.2572 11.117 28.1903C10.941 28.2043 10.7769 28.2177 10.6247 28.2305C10.4818 28.238 10.327 28.2461 10.1603 28.2549C9.96971 28.2649 9.72826 28.2608 9.43593 28.2427C9.1476 28.2101 8.86066 28.1583 8.5751 28.0873C8.28953 28.0163 8.06289 27.9303 7.89517 27.8293C7.66777 27.7743 7.44853 27.6473 7.23745 27.4482C7.0211 27.2399 6.84324 26.9912 6.70387 26.7024C6.5645 26.4136 6.49195 26.1236 6.48621 25.8325C6.46818 25.671 6.47146 25.4607 6.49606 25.2014C6.52467 24.9277 6.5672 24.646 6.62364 24.3564C6.68008 24.0668 6.74242 23.7984 6.81064 23.5512C6.87886 23.304 6.94557 23.119 7.01077 22.9962C7.04288 22.8798 7.07962 22.7609 7.121 22.6393C7.15712 22.5084 7.17518 22.443 7.17518 22.443C7.15814 22.3913 7.15889 22.3602 7.17745 22.3497C7.20528 22.3339 7.21919 22.326 7.21919 22.326C7.24979 22.2719 7.32552 22.1676 7.44638 22.0131C7.56724 21.8587 7.67044 21.6407 7.75596 21.3592C8.20908 20.7096 8.59099 20.2047 8.90167 19.8444C9.21235 19.4842 9.49293 19.233 9.74342 19.0909C9.98061 18.9685 10.2209 18.9058 10.4644 18.9025C10.7118 18.8847 10.9406 18.9205 11.1507 19.0098C11.3701 19.0938 11.5569 19.2392 11.711 19.4461C11.9023 19.6319 12.0312 19.9022 12.0976 20.257C12.1587 20.6025 12.1609 20.963 12.1042 21.3386C12.0515 21.6996 11.9461 22.0109 11.7878 22.2723C11.5912 22.5311 11.4439 22.6821 11.3459 22.7255C11.2519 22.7543 11.1595 22.6779 11.0687 22.4964C11.0266 22.4222 10.9998 22.3209 10.9883 22.1925C10.986 22.0589 11.0272 21.7964 11.1117 21.405C11.1612 20.8005 11.1447 20.35 11.0622 20.0534C10.9798 19.7568 10.8379 19.6472 10.6365 19.7246C10.5703 19.7377 10.4683 19.7956 10.3304 19.8984C10.2018 19.9959 10.0598 20.1132 9.90463 20.2503C9.75343 20.3729 9.62806 20.487 9.52851 20.5925C9.4237 20.6888 9.37656 20.7462 9.38709 20.7648C9.38709 20.7648 9.39498 20.7787 9.41078 20.8065C9.42657 20.8343 9.41328 20.8541 9.37091 20.8659C9.35235 20.8764 9.29455 20.9583 9.19751 21.1115C9.10046 21.2647 8.98874 21.4568 8.86236 21.688C8.73597 21.9191 8.60958 22.1503 8.48319 22.3814C8.35681 22.6126 8.25035 22.814 8.16384 22.9858C8.08133 23.1429 8.04071 23.2335 8.04196 23.2573C8.08131 23.3698 8.02726 23.5232 7.87982 23.7172C7.75744 23.9338 7.67794 24.1935 7.6413 24.4964C7.61394 24.794 7.59697 25.1532 7.59041 25.5739C7.55377 25.8767 7.57405 26.1718 7.65124 26.4592C7.72317 26.7372 7.83371 26.9321 7.98288 27.0436C8.11349 27.1658 8.3652 27.2743 8.73802 27.3694C9.11083 27.4645 9.53868 27.516 10.0216 27.5241C10.437 27.5214 10.82 27.5371 11.1705 27.5712C11.5157 27.5961 11.8119 27.6426 12.0591 27.7109C12.3156 27.7738 12.5059 27.8498 12.63 27.9388C12.8308 28.0334 13.0018 28.151 13.1429 28.2917C13.2881 28.4178 13.4028 28.5551 13.487 28.7035C13.5805 28.8467 13.6429 28.9891 13.6743 29.1307C13.6935 29.316 13.6644 29.5349 13.5869 29.7874C13.5187 30.0346 13.4263 30.1851 13.3097 30.239C13.2235 30.3248 13.163 30.402 13.1284 30.4707C13.1031 30.5341 13.0659 30.5981 13.0167 30.6628C12.9728 30.7368 12.8547 30.8529 12.6624 31.011C12.4794 31.164 12.2652 31.3161 12.02 31.4675C11.78 31.6282 11.5508 31.7645 11.3321 31.8763Z" fill="black"/>
<path d="M16.2803 28.2119C16.0283 28.3991 15.7689 28.5125 15.5019 28.5519C15.2301 28.5817 14.9747 28.5376 14.7357 28.4195C14.5013 28.287 14.3071 28.0685 14.153 27.7639C13.98 27.4928 13.8472 27.1475 13.7546 26.7282C13.6572 26.2993 13.6027 25.8488 13.5909 25.3766C13.5887 24.8995 13.6273 24.4676 13.7066 24.0809C13.7814 23.7561 13.8658 23.4504 13.9599 23.1638C14.054 22.8771 14.1603 22.662 14.2789 22.5183C14.3833 22.3938 14.4901 22.2979 14.5995 22.2306C14.7137 22.149 14.8088 22.0889 14.8849 22.0504C15.0565 22.0114 15.2544 22.001 15.4787 22.019C15.7077 22.0227 15.8511 22.0817 15.9088 22.1959C15.9088 22.1959 15.9256 22.2054 15.9591 22.2243C15.9972 22.2289 16.0163 22.2312 16.0163 22.2312C16.0734 22.2023 16.1523 22.2401 16.253 22.3446C16.3632 22.4442 16.4639 22.5726 16.5553 22.7295C16.6419 22.877 16.6831 23.0176 16.6789 23.1511C16.7323 23.3513 16.7451 23.542 16.7174 23.7234C16.6896 23.9048 16.6376 24.0148 16.5615 24.0533C16.5234 24.0725 16.4877 24.0966 16.4545 24.1253C16.4259 24.1398 16.4237 24.1708 16.4477 24.2184C16.4718 24.266 16.4529 24.2995 16.391 24.3188C16.3386 24.3334 16.2718 24.3313 16.1906 24.3126C16.1046 24.2844 16.0281 24.2394 15.961 24.1777C15.9369 24.1301 15.915 24.0396 15.8953 23.9061C15.8756 23.7726 15.8391 23.6058 15.7857 23.4057C15.708 23.1103 15.6165 22.9414 15.5114 22.899C15.4014 22.847 15.2705 22.9073 15.1187 23.0797C14.9481 23.3333 14.8136 23.6345 14.715 23.9832C14.626 24.327 14.5873 24.7351 14.5991 25.2073C14.606 25.67 14.6801 26.2182 14.8214 26.852C14.875 27.0998 14.9475 27.3022 15.0389 27.4592C15.1398 27.6114 15.2069 27.685 15.2403 27.6801C15.3928 27.6508 15.5784 27.5688 15.7972 27.4342C16.0112 27.2901 16.1561 27.163 16.232 27.053C16.3457 26.8998 16.4665 26.7132 16.5943 26.4932C16.7172 26.2636 16.8236 26.0604 16.9134 25.8835C16.9466 25.8308 16.9796 25.7543 17.0126 25.654C17.0455 25.5537 17.0904 25.4652 17.1473 25.3886C17.1656 25.2359 17.1986 25.1356 17.2461 25.0876C17.2935 25.0397 17.3744 24.9869 17.4886 24.9291C17.5744 24.9096 17.6602 24.9021 17.7461 24.9064C17.832 24.9108 17.8941 24.9272 17.9324 24.9557C17.9802 24.9793 17.9828 25.0198 17.9401 25.0773C17.902 25.0965 17.8854 25.1228 17.8904 25.1562C17.9 25.1752 17.9048 25.1848 17.9048 25.1848C17.9431 25.2132 17.9412 25.3158 17.8991 25.4925C17.8617 25.6548 17.8029 25.8459 17.7229 26.0657C17.6428 26.2855 17.5578 26.4839 17.468 26.6608C17.3829 26.8234 17.3118 26.9191 17.2547 26.948C17.1595 26.9962 17.1264 27.0488 17.1553 27.1059C17.1649 27.125 17.1176 27.2087 17.0133 27.357C16.9186 27.5006 16.8 27.6562 16.6577 27.8238C16.5249 27.9866 16.3991 28.116 16.2803 28.2119Z" fill="black"/>
<path d="M20.0376 26.035C19.9194 26.0065 19.8255 25.967 19.7558 25.9166C19.6959 25.8617 19.6366 25.7305 19.5779 25.5229C19.4841 25.2376 19.4154 24.9819 19.3717 24.7558C19.3237 24.52 19.2722 24.2506 19.2172 23.9477C19.1839 23.8223 19.1473 23.5988 19.1074 23.2774C19.0772 22.9516 19.0555 22.5927 19.0422 22.2007C19.029 21.8087 19.0245 21.4362 19.0288 21.0831C19.0287 20.7203 19.0443 20.444 19.0756 20.2543C19.127 20.1608 19.2084 20.0948 19.3197 20.0562C19.4407 20.0132 19.5577 20.013 19.6706 20.0556C19.817 20.0948 19.9019 20.2437 19.9252 20.5024C19.9538 20.747 19.9617 21.1531 19.949 21.7207C19.951 22.0359 19.9536 22.2746 19.9567 22.4371C19.9555 22.5898 19.9664 22.6785 19.9893 22.7033C20.0078 22.7184 20.0449 22.684 20.1007 22.6003C20.1107 22.467 20.1627 22.2972 20.2567 22.0908C20.3464 21.8747 20.4479 21.6591 20.5614 21.4439C20.6749 21.2288 20.7852 21.0326 20.8924 20.8554C20.9996 20.6782 21.0758 20.5618 21.1209 20.5063C21.1767 20.4226 21.2466 20.3442 21.3306 20.2711C21.42 20.1839 21.4797 20.1218 21.5098 20.0848C21.685 19.8768 21.8959 19.7347 22.1424 19.6584C22.3888 19.5822 22.5742 19.6037 22.6984 19.7232C22.7432 19.7966 22.7987 19.8417 22.8649 19.8586C22.9408 19.8711 22.9788 19.8774 22.9788 19.8774C23.0176 19.8598 23.0437 19.8656 23.0568 19.8948C23.0797 19.9196 23.0912 19.9319 23.0912 19.9319C23.1219 20 23.0882 20.0679 22.9901 20.1356C22.8973 20.1893 22.7753 20.2561 22.6242 20.3361C22.5022 20.4029 22.4014 20.4778 22.3218 20.5606C22.2422 20.6434 22.1475 20.7447 22.0378 20.8645C21.765 21.2453 21.5047 21.6146 21.2568 21.9725C21.0185 22.326 20.8208 22.7431 20.6635 23.2239C20.6306 23.3324 20.6042 23.4555 20.5845 23.5931C20.5648 23.7308 20.5446 23.8804 20.524 24.0419C20.4973 24.1125 20.4971 24.2413 20.5231 24.4285C20.5492 24.6158 20.5779 24.7959 20.6093 24.969C20.6461 25.128 20.671 25.222 20.6842 25.2512C20.6842 25.2512 20.6916 25.3064 20.7064 25.4168C20.7167 25.5174 20.7077 25.6269 20.6792 25.7451C20.6328 25.9534 20.5708 26.075 20.493 26.1102C20.4152 26.1453 20.2634 26.1203 20.0376 26.035Z" fill="black"/>
<path d="M26.2188 23.7818C26.0901 23.8333 25.9762 23.8501 25.8771 23.8323C25.788 23.8105 25.6711 23.7769 25.5265 23.7313C25.2591 23.6086 25.0501 23.4739 24.8996 23.3273C24.7451 23.1709 24.649 23.0025 24.6113 22.8223C24.6093 22.7312 24.5895 22.6529 24.5519 22.5876C24.5202 22.5083 24.5043 22.4687 24.5043 22.4687C24.435 22.439 24.4083 22.4153 24.4241 22.3974C24.436 22.3697 24.4439 22.3321 24.4479 22.2845C24.5073 22.2608 24.5053 22.1984 24.4419 22.0973C24.3904 22.026 24.3607 21.8369 24.3527 21.5299C24.3447 21.2229 24.3675 20.9208 24.4209 20.6237C24.4407 20.5009 24.4784 20.3365 24.5338 20.1305C24.5853 19.9145 24.6486 19.6996 24.7239 19.4857C24.8051 19.2579 24.8853 19.0707 24.9645 18.9241C25.1288 18.6171 25.2853 18.3764 25.4338 18.2021C25.5824 18.0278 25.7557 17.8723 25.9537 17.7356C26.1518 17.5989 26.2904 17.5147 26.3697 17.483C26.4588 17.4473 26.6093 17.479 26.8213 17.578C27.0887 17.5859 27.2996 17.6394 27.4541 17.7384C27.6186 17.8334 27.7691 18.0087 27.9058 18.2642C28.0544 18.5494 28.1664 18.901 28.2417 19.3189C28.3229 19.723 28.2784 20.2865 28.1081 21.0095C28.0032 21.4651 27.8824 21.8236 27.7458 22.0851C27.6052 22.3367 27.425 22.6041 27.2051 22.8874C27.0526 23.1092 26.9061 23.2885 26.7655 23.4252C26.6209 23.552 26.4387 23.6708 26.2188 23.7818ZM27.0148 21.6365C27.1455 21.274 27.2327 20.9462 27.2762 20.6531C27.3296 20.356 27.3474 19.9984 27.3296 19.5805C27.3256 19.4557 27.2968 19.3121 27.2433 19.1497C27.1859 18.9774 27.1195 18.8258 27.0442 18.6951C26.9749 18.5505 26.9065 18.4802 26.8392 18.4842C26.6926 18.4624 26.5411 18.5001 26.3846 18.5971C26.2242 18.6843 26.0786 18.8517 25.9479 19.0993C25.744 19.4796 25.6053 19.9085 25.5321 20.3859C25.4549 20.8533 25.4045 21.3733 25.3808 21.9457C25.3749 22.3617 25.4551 22.6627 25.6215 22.8489C25.7939 23.0212 26.0068 23.0222 26.2603 22.8518C26.5198 22.6676 26.7713 22.2625 27.0148 21.6365Z" fill="black"/>
<path d="M31.1609 22.2152C30.9879 22.3335 30.8179 22.3489 30.6507 22.2613C30.4936 22.1702 30.3566 21.9925 30.2397 21.7285C30.1228 21.4644 30.0383 21.1321 29.986 20.7318C29.9932 20.5933 29.9922 20.4634 29.9829 20.3421C29.97 20.2108 29.951 20.11 29.9259 20.0397C29.9102 19.9321 29.8984 19.7721 29.8905 19.5597C29.8791 19.3372 29.8709 19.108 29.866 18.8719C29.861 18.6359 29.86 18.4267 29.8629 18.2445C29.8723 18.0486 29.8798 17.927 29.8856 17.8796C29.9258 17.8653 29.9484 17.8176 29.9534 17.7365C29.9585 17.6554 29.9485 17.5797 29.9234 17.5094C29.8947 17.429 29.8775 17.3332 29.8718 17.222C29.8761 17.1072 29.8912 17.0225 29.9171 16.968C29.8991 16.9178 29.8895 16.8589 29.888 16.7915C29.8931 16.7104 29.8884 16.6498 29.8741 16.6096C29.8598 16.5694 29.8555 16.5256 29.8612 16.4783C29.877 16.4273 29.8777 16.3818 29.8634 16.3416C29.8871 16.1859 29.9041 15.9477 29.9142 15.627C29.9308 15.2926 29.9416 14.9263 29.9468 14.5281C29.9619 14.1263 29.9689 13.7331 29.9675 13.3485C29.9662 12.9639 29.9595 12.6435 29.9473 12.3874C29.9417 12.1176 29.9299 11.9576 29.912 11.9073C29.8833 11.827 29.8819 11.7595 29.9077 11.705C29.9336 11.6505 29.9867 11.6089 30.067 11.5802C30.0864 11.5393 30.1144 11.5067 30.151 11.4823C30.1977 11.4543 30.2411 11.4332 30.2813 11.4188C30.2813 11.4188 30.3085 11.4317 30.363 11.4576C30.4176 11.4834 30.4994 11.5222 30.6084 11.5739C30.7139 11.6155 30.7878 11.6798 30.8301 11.7666C30.8824 11.8498 30.9301 11.9517 30.9731 12.0723C31.0197 12.2029 31.0459 12.3238 31.0516 12.435C31.0573 12.5462 31.049 12.7134 31.0267 12.9366C31.0044 13.1597 30.9695 13.5063 30.922 13.9762C30.9134 14.2058 30.8961 14.4272 30.8702 14.6403C30.8407 14.8433 30.8331 14.9649 30.8475 15.0051C30.8618 15.0453 30.8632 15.1128 30.8517 15.2075C30.8503 15.2986 30.851 15.4116 30.8538 15.5465C30.8423 15.6412 30.8301 15.7815 30.8171 15.9673C30.8005 16.1431 30.7843 16.3357 30.7685 16.5453C30.7591 16.7411 30.7526 16.9133 30.749 17.0619C30.7418 17.2003 30.7418 17.2796 30.7489 17.2997C30.7633 17.3399 30.7726 17.3819 30.7769 17.4257C30.7912 17.4658 30.7855 17.5132 30.7596 17.5677C30.7194 17.5821 30.7051 17.6212 30.7165 17.685C30.7345 17.7352 30.7434 17.7604 30.7434 17.7604C30.7793 17.8608 30.7939 18.1557 30.7873 18.6451C30.8237 19.255 30.8541 19.8161 30.8783 20.3284C30.9126 20.8371 30.98 21.2321 31.0804 21.5134C31.1664 21.7545 31.2187 21.9171 31.2374 22.001C31.2524 22.0749 31.2269 22.1463 31.1609 22.2152Z" fill="black"/>
<path d="M35.1361 20.9099C34.9595 21.0227 34.789 21.0326 34.6247 20.9398C34.4706 20.8436 34.3393 20.6617 34.2309 20.3941C34.1225 20.1264 34.0486 19.7916 34.0091 19.3898C34.0207 19.2516 34.0238 19.1218 34.0184 19.0003C34.0097 18.8686 33.9939 18.7672 33.9711 18.6962C33.9588 18.5881 33.9521 18.4278 33.951 18.2152C33.9467 17.9926 33.9458 17.7632 33.9484 17.5271C33.951 17.291 33.9566 17.0819 33.9654 16.8998C33.981 16.7043 33.9924 16.583 33.9997 16.5359C34.0403 16.5228 34.0644 16.4759 34.072 16.395C34.0797 16.3141 34.0721 16.2381 34.0492 16.167C34.0231 16.0858 34.009 15.9895 34.0068 15.8782C34.0148 15.7636 34.0326 15.6794 34.0602 15.6257C34.0439 15.575 34.0361 15.5158 34.0368 15.4484C34.0444 15.3675 34.0417 15.3068 34.0287 15.2661C34.0156 15.2255 34.0127 15.1816 34.02 15.1345C34.0374 15.0841 34.0396 15.0386 34.0265 14.9979C34.0552 14.8431 34.0797 14.6055 34.1001 14.2853C34.1273 13.9516 34.1498 13.5859 34.1677 13.188C34.1956 12.7869 34.2151 12.3941 34.226 12.0097C34.237 11.6253 34.2404 11.3048 34.2365 11.0484C34.2394 10.7786 34.2327 10.6183 34.2164 10.5675C34.1903 10.4863 34.191 10.4188 34.2186 10.3651C34.2462 10.3115 34.3006 10.2716 34.3818 10.2455C34.4025 10.2052 34.4315 10.1735 34.4689 10.1503C34.5164 10.1238 34.5605 10.104 34.6011 10.091C34.6011 10.091 34.6279 10.1048 34.6816 10.1323C34.7353 10.1599 34.8158 10.2013 34.9231 10.2564C35.0272 10.3014 35.099 10.368 35.1385 10.4561C35.1882 10.541 35.2326 10.6443 35.2718 10.7662C35.3142 10.8982 35.3365 11.0199 35.3387 11.1312C35.3408 11.2426 35.3272 11.4094 35.2978 11.6317C35.2684 11.8541 35.2225 12.1993 35.16 12.6675C35.144 12.8967 35.1197 13.1174 35.087 13.3296C35.0511 13.5316 35.0397 13.6529 35.0527 13.6935C35.0658 13.7341 35.065 13.8016 35.0505 13.8959C35.0461 13.9869 35.0432 14.0999 35.0418 14.2348C35.0272 14.3291 35.0105 14.4689 34.9917 14.6542C34.9695 14.8294 34.9472 15.0215 34.9247 15.2304C34.9091 15.4258 34.8971 15.5977 34.8887 15.7461C34.8771 15.8843 34.8745 15.9635 34.8811 15.9838C34.8941 16.0244 34.9021 16.0667 34.905 16.1106C34.918 16.1512 34.9108 16.1983 34.8832 16.252C34.8426 16.2651 34.827 16.3037 34.8364 16.3679C34.8527 16.4187 34.8609 16.444 34.8609 16.444C34.8935 16.5456 34.8987 16.8408 34.8765 17.3297C34.8935 17.9405 34.9059 18.5022 34.9138 19.0151C34.9319 19.5246 34.9866 19.9216 35.078 20.2059C35.1563 20.4497 35.2034 20.6138 35.2194 20.6983C35.2321 20.7727 35.2043 20.8432 35.1361 20.9099Z" fill="black"/>
<path d="M47.3353 18.0105C47.2079 18.0739 47.0888 18.0805 46.9781 18.0303C46.8802 17.9879 46.7956 17.9095 46.7242 17.7949C46.5841 17.5762 46.4597 17.3318 46.3511 17.0617C46.2504 16.7787 46.1844 16.5258 46.1529 16.303L46.1058 15.9688L45.6145 16.5965C45.3364 16.9922 45.0475 17.2972 44.7478 17.5116C44.4586 17.7235 44.1895 17.8593 43.9405 17.9189C43.8214 17.9255 43.6974 17.9114 43.5684 17.8764C43.4394 17.8415 43.317 17.7886 43.2013 17.7176C43.0959 17.6441 43.0049 17.5617 42.9282 17.4704C42.8311 17.3401 42.7632 17.148 42.7243 16.8941C42.6958 16.6377 42.6934 16.3531 42.7171 16.0402C42.7488 15.7146 42.8037 15.3943 42.8818 15.0794C42.9678 14.7517 43.0833 14.4553 43.2282 14.1903C43.4463 13.5896 43.7387 13.185 44.1055 12.9765C44.4724 12.7679 44.875 12.7318 45.3135 12.868C45.6106 12.9175 45.789 12.9296 45.8487 12.9043C45.9188 12.8766 45.9525 12.7424 45.9497 12.5017C45.9514 12.3258 45.9532 12.1499 45.9549 11.974C45.9541 11.7877 45.9656 11.5382 45.9894 11.2254C46.0599 10.3749 46.135 9.70424 46.2149 9.21346C46.3051 8.7202 46.3883 8.28896 46.4643 7.91974C46.5213 7.65382 46.5798 7.48623 46.64 7.41697C46.7081 7.33485 46.7849 7.28903 46.8703 7.27952C46.9844 7.25219 47.0981 7.26883 47.2114 7.32945C47.3246 7.39007 47.4245 7.48677 47.5112 7.61957C47.5751 7.70299 47.6105 7.78225 47.6175 7.85734C47.6324 7.91958 47.6224 8.01521 47.5875 8.14423C47.5123 8.42549 47.4311 8.79595 47.3438 9.25561C47.2643 9.70241 47.1897 10.1919 47.1198 10.7242C47.0602 11.254 47.0098 11.7761 46.9685 12.2905C46.9272 12.805 46.8982 13.2562 46.8815 13.6441C46.8739 13.8872 46.8864 14.1913 46.9191 14.5564C46.9621 14.9191 47.0128 15.2908 47.0711 15.6717C47.127 16.0422 47.1845 16.3739 47.2437 16.6669C47.3108 16.9469 47.3647 17.126 47.4053 17.204C47.5172 17.3966 47.5805 17.5459 47.5949 17.6522C47.6198 17.7559 47.61 17.8295 47.5656 17.8731C47.5237 17.927 47.4469 17.9728 47.3353 18.0105ZM44.2919 16.9134C44.4297 16.8475 44.556 16.7569 44.671 16.6416C44.7964 16.5238 44.9232 16.3892 45.0514 16.2378C45.3055 15.9247 45.523 15.6422 45.704 15.3905C45.885 15.1387 45.9633 14.8019 45.939 14.3799C45.9125 14.1779 45.8545 14.0272 45.7649 13.928C45.6832 13.816 45.5677 13.723 45.4184 13.6491C45.274 13.5959 45.0954 13.6058 44.8826 13.6788C44.6776 13.7388 44.4858 13.8999 44.3073 14.1621C44.113 14.4499 43.9426 14.8143 43.796 15.2553C43.6597 15.6938 43.6016 16.2068 43.6217 16.7942C43.6258 16.9029 43.6768 16.9785 43.7747 17.0208C43.8726 17.0632 44.045 17.0274 44.2919 16.9134Z" fill="black"/>
<path d="M50.3738 16.9145C50.2376 16.9406 50.1226 16.9355 50.0288 16.8992C49.9454 16.8608 49.8371 16.8056 49.7038 16.7334C49.4646 16.562 49.285 16.39 49.1651 16.2175C49.0431 16.0345 48.9808 15.851 48.9781 15.6669C48.9935 15.577 48.9889 15.4965 48.9644 15.4251C48.9483 15.3413 48.9403 15.2994 48.9403 15.2994C48.8779 15.2571 48.8561 15.2287 48.8751 15.2142C48.892 15.1892 48.9069 15.1538 48.9199 15.1078C48.9827 15.0958 48.9926 15.0342 48.9496 14.9229C48.9126 14.8432 48.9194 14.6518 48.9699 14.3489C49.0205 14.0459 49.1003 13.7537 49.2092 13.4722C49.252 13.3554 49.3202 13.2011 49.4138 13.0094C49.5054 12.8072 49.6085 12.6083 49.723 12.4126C49.846 12.2044 49.9603 12.0358 50.066 11.907C50.2857 11.6368 50.4851 11.4303 50.6641 11.2874C50.843 11.1445 51.0428 11.0247 51.2632 10.9282C51.4836 10.8317 51.6357 10.7754 51.7196 10.7593C51.8138 10.7412 51.9556 10.801 52.1449 10.9385C52.4059 10.9971 52.6028 11.0897 52.7357 11.2162C52.879 11.3408 52.9935 11.5415 53.0791 11.8184C53.1708 12.1266 53.2139 12.4931 53.2083 12.9177C53.2113 13.3298 53.0604 13.8746 52.7558 14.5521C52.5662 14.9794 52.3794 15.3084 52.1955 15.5391C52.0097 15.7594 51.7819 15.9876 51.5122 16.224C51.3203 16.4128 51.1423 16.5609 50.9783 16.6684C50.8122 16.7653 50.6108 16.8474 50.3738 16.9145ZM51.5632 14.9598C51.7605 14.6287 51.9083 14.3235 52.0068 14.0439C52.1158 13.7624 52.2012 13.4148 52.2631 13.0011C52.283 12.8778 52.282 12.7313 52.2604 12.5617C52.2368 12.3816 52.2004 12.2202 52.1514 12.0776C52.1108 11.9225 52.057 11.8404 51.9902 11.8315C51.8504 11.7823 51.6945 11.7904 51.5224 11.856C51.3483 11.9111 51.1736 12.0477 50.9982 12.266C50.7256 12.6006 50.508 12.9952 50.3453 13.45C50.1807 13.8942 50.0323 14.3951 49.9002 14.9526C49.8153 15.3598 49.8368 15.6707 49.9648 15.8851C50.1012 16.087 50.3101 16.1285 50.5914 16.0094C50.8811 15.8779 51.2051 15.528 51.5632 14.9598Z" fill="black"/>
<path d="M56.083 15.5162C55.9245 15.5385 55.7633 15.4641 55.5993 15.2933C55.4443 15.1104 55.3137 14.8702 55.2073 14.5728C55.11 14.2633 55.0482 13.9381 55.0218 13.5971C54.9744 13.2591 54.9524 12.9875 54.9559 12.7824C54.9685 12.5652 54.9818 12.3533 54.9959 12.1466C55.0187 12.0788 55.0271 12.0238 55.0212 11.9815C55.0258 11.9378 55.0267 11.8676 55.024 11.7711C55.0317 11.673 55.0465 11.5094 55.0681 11.2802C55.0852 11.0947 55.1067 10.9408 55.1326 10.8187C55.1585 10.6966 55.1897 10.6114 55.226 10.5633C55.2699 10.4925 55.3334 10.4458 55.4164 10.4234C55.4979 10.3904 55.5832 10.3838 55.6721 10.4037C55.7611 10.4235 55.8379 10.472 55.9026 10.549C55.9734 10.593 56.0221 10.71 56.0488 10.9001C56.0846 11.0782 56.1007 11.2698 56.0972 11.475C56.0922 11.6696 56.064 11.8136 56.0124 11.907C55.9987 11.9627 55.9916 12.1038 55.9911 12.33C56.0011 12.5548 56.0073 12.7909 56.0097 13.0383C56.0227 13.2842 56.0237 13.4834 56.0128 13.6357C56.0078 13.8303 56.0452 13.9812 56.1249 14.0885C56.2151 14.1943 56.3479 14.1811 56.5232 14.0487C56.7076 13.9044 56.9301 13.5715 57.1909 13.0502C57.3682 12.7022 57.5009 12.4197 57.5889 12.2026C57.6769 11.9856 57.7407 11.7882 57.7804 11.6103C57.8291 11.4203 57.8763 11.2198 57.9221 11.0087C57.9512 10.8323 57.9794 10.6883 58.0069 10.5767C58.0434 10.4531 58.0805 10.3725 58.1183 10.3349C58.1848 10.2717 58.2664 10.2387 58.3629 10.2359C58.47 10.2316 58.5929 10.2629 58.7315 10.3296C58.8761 10.4385 58.961 10.5828 58.9862 10.7624C59.0099 10.9314 58.9762 11.1515 58.885 11.4228C58.8243 11.6037 58.7702 11.8321 58.7227 12.1081C58.6859 12.3825 58.6603 12.6608 58.6461 12.9428C58.6409 13.2128 58.6502 13.4324 58.6739 13.6014C58.7036 13.8126 58.7478 13.9357 58.8065 13.9705C58.8743 13.9933 58.9505 13.9988 59.035 13.9869C59.1618 13.9691 59.3082 13.9001 59.4745 13.7798C59.6407 13.6595 59.8184 13.4676 60.0076 13.2041C60.0893 13.0956 60.1862 12.942 60.2983 12.7432C60.409 12.5337 60.5136 12.3198 60.6121 12.1013C60.7198 11.8708 60.8048 11.6703 60.867 11.5C60.9398 11.3282 60.9733 11.2212 60.9674 11.1789C60.9585 11.1156 60.9934 11.0191 61.0721 10.8896C61.1236 10.7962 61.1623 10.7261 61.188 10.6794C61.2229 10.6207 61.2894 10.5575 61.3876 10.4898C61.4662 10.4357 61.5394 10.42 61.6072 10.4428C61.6736 10.4551 61.7496 10.4982 61.8354 10.5724C61.8942 10.6072 61.9295 10.6669 61.9414 10.7514C61.9638 10.8344 61.9839 10.9393 62.0017 11.066C61.9863 11.1867 61.955 11.3473 61.9078 11.5478C61.8696 11.7362 61.8201 11.9209 61.7594 12.1018C61.7077 12.2706 61.6599 12.3904 61.6159 12.4612C61.5796 12.5094 61.5168 12.599 61.4275 12.73C61.3367 12.8505 61.2579 12.98 61.1912 13.1187C60.9716 13.4726 60.8104 13.7053 60.7076 13.8167C60.6047 13.9281 60.517 14.0319 60.4444 14.1283C60.2537 14.3813 60.045 14.5829 59.8184 14.7332C59.5903 14.873 59.3653 14.9584 59.1435 14.9896C58.9322 15.0192 58.7452 14.9916 58.5825 14.9067C58.2313 14.7837 58.0275 14.5215 57.9712 14.1201C57.9593 14.0356 57.9331 13.9639 57.8925 13.905C57.861 13.834 57.8452 13.7985 57.8452 13.7985C57.803 13.8044 57.7464 13.8231 57.6754 13.8547C57.615 13.8847 57.5567 13.9683 57.5006 14.1054C57.4307 14.2983 57.3035 14.5047 57.1189 14.7245C56.9435 14.9322 56.759 15.1143 56.5655 15.2707C56.3706 15.4166 56.2097 15.4984 56.083 15.5162Z" fill="black"/>
<path d="M67.8277 14.3184C67.6152 14.3367 67.4362 14.3093 67.2907 14.2361C67.1444 14.1523 67.0142 14.0083 66.9003 13.8039C66.845 13.6588 66.7937 13.4973 66.7463 13.3193C66.7086 13.1299 66.6829 12.9554 66.6692 12.796C66.6546 12.626 66.6609 12.513 66.6883 12.4571C66.7271 12.411 66.7367 12.3352 66.7169 12.2298C66.7069 12.1129 66.6964 11.9907 66.6854 11.8632C66.6565 11.6516 66.5934 11.5392 66.4959 11.5262C66.4081 11.5016 66.2833 11.5444 66.1215 11.6547C65.9403 11.788 65.7042 11.9689 65.4133 12.1973C65.1216 12.4151 64.8157 12.6555 64.4957 12.9185C64.1863 13.1806 63.8938 13.4519 63.6182 13.7326C63.4063 14.0077 63.2797 14.2166 63.2384 14.3594C63.2069 14.4905 63.1486 14.5598 63.0635 14.5671C62.9822 14.6169 62.9082 14.6286 62.8417 14.6022C62.7849 14.5643 62.6998 14.5073 62.5862 14.4314C62.5045 14.3528 62.4232 14.2795 62.3425 14.2115C62.2608 14.1329 62.2075 14.0732 62.1826 14.0325C62.178 13.9794 62.1844 13.8664 62.2016 13.6937C62.2189 13.5209 62.2415 13.3476 62.2694 13.1739C62.3079 12.9993 62.3355 12.8846 62.3522 12.8296C62.4054 12.825 62.4433 12.7682 62.4661 12.6592C62.4994 12.5493 62.5532 12.4269 62.6272 12.2921C62.6375 12.1627 62.6761 11.9881 62.7428 11.7683C62.8193 11.5369 62.8874 11.333 62.9472 11.1565C63.0741 10.8887 63.1568 10.6675 63.1953 10.4929C63.2445 10.3173 63.2687 10.1011 63.2681 9.84426C63.2538 9.80266 63.2612 9.76455 63.2904 9.72993C63.3186 9.68468 63.354 9.66023 63.3965 9.65658C63.4742 9.56425 63.5734 9.53433 63.6939 9.56679C63.8136 9.58864 63.9267 9.65921 64.0333 9.77853C64.2465 10.0172 64.3437 10.2765 64.3249 10.5564C64.3159 10.8248 64.1787 11.222 63.9134 11.748C63.8536 11.9244 63.8066 12.0623 63.7723 12.1616C63.7477 12.2494 63.7377 12.3198 63.7423 12.373C63.7423 12.373 63.7922 12.3312 63.8921 12.2477C64.0026 12.1632 64.1228 12.0673 64.2528 11.9597C64.3924 11.8407 64.5025 11.7509 64.5829 11.6905C64.6315 11.6328 64.7455 11.5267 64.9249 11.3721C65.1044 11.2175 65.2949 11.0673 65.4965 10.9215C65.7078 10.7642 65.8657 10.6703 65.9701 10.6399C66.0515 10.5901 66.1386 10.5452 66.2315 10.5051C66.3235 10.4543 66.3908 10.4271 66.4333 10.4235C66.5183 10.4162 66.6287 10.4549 66.7644 10.5396C66.9099 10.6127 67.0466 10.7081 67.1744 10.8255C67.3014 10.9324 67.3791 11.0274 67.4077 11.1106C67.4113 11.1531 67.415 11.1956 67.4186 11.2382C67.4329 11.2798 67.4472 11.3213 67.4615 11.3629C67.5158 11.4975 67.5531 11.6816 67.5731 11.9154C67.6039 12.1483 67.6168 12.3613 67.612 12.5544C67.6072 12.7476 67.5795 12.8623 67.5291 12.8988C67.5291 12.8988 67.5305 12.9147 67.5333 12.9466C67.5457 12.967 67.5732 12.9753 67.6157 12.9716C67.6194 13.0142 67.6216 13.0407 67.6225 13.0514C67.5694 13.0559 67.5523 13.1056 67.5711 13.2003C67.589 13.2844 67.6291 13.3773 67.6914 13.479C67.7643 13.5798 67.8354 13.6594 67.9046 13.7177C68.0431 13.8342 68.1067 13.9519 68.0955 14.0706C68.0834 14.1787 67.9941 14.2613 67.8277 14.3184Z" fill="black"/>
<path d="M75.0303 14.8889C74.9129 14.8678 74.7901 14.8093 74.6619 14.7136C74.5444 14.6072 74.4375 14.49 74.3412 14.3622C74.2556 14.2237 74.1967 14.1012 74.1645 13.9946C74.1644 13.9732 74.1484 13.9466 74.1163 13.9147C74.0949 13.8827 74.0842 13.8667 74.0842 13.8667C74.0415 13.8348 74.0145 13.6962 74.0034 13.4509C74.0029 13.1949 74.0183 12.9122 74.0497 12.6028C74.0811 12.2934 74.1179 12.048 74.1602 11.8666C74.2132 11.6958 74.2928 11.4663 74.3989 11.1781C74.5049 10.8792 74.5951 10.6124 74.6693 10.3776L75.0994 9.44871L74.4591 9.27398C74.3844 9.2528 74.3203 9.21026 74.2668 9.14636C74.224 9.08245 74.2026 9.02916 74.2025 8.98649C74.2023 8.90116 74.2501 8.79973 74.3459 8.68221C74.4416 8.55402 74.5108 8.48988 74.5535 8.48979C74.6069 8.50035 74.7029 8.50549 74.8415 8.50522C74.9909 8.50492 75.1349 8.4993 75.2735 8.48836C75.4122 8.47741 75.4975 8.46658 75.5294 8.45585C75.5721 8.43443 75.6147 8.40768 75.6573 8.37559C75.6999 8.33284 75.7317 8.27411 75.7529 8.1994C75.806 8.08196 75.8538 7.9752 75.8963 7.87912C75.9387 7.77236 75.9972 7.65491 76.0716 7.52677C76.146 7.38795 76.2044 7.2705 76.2469 7.17442C76.3 7.07831 76.3798 6.94482 76.4861 6.77394C76.5393 6.69916 76.5978 6.60838 76.6615 6.50159C76.7253 6.39479 76.8052 6.30397 76.901 6.22911C76.9968 6.14358 77.0928 6.10606 77.1888 6.11654C77.2954 6.11632 77.4289 6.18539 77.5892 6.32374C77.6747 6.43023 77.7229 6.51014 77.7337 6.56345C77.7444 6.61676 77.702 6.71818 77.6063 6.86771C77.5213 7.04921 77.4203 7.23074 77.3034 7.41231C77.1971 7.59386 77.0961 7.77539 77.0004 7.95691C76.8303 8.19192 76.7985 8.32532 76.9052 8.35711C77.012 8.38889 77.3106 8.36696 77.8011 8.29132C78.1103 8.23737 78.3344 8.25292 78.4732 8.33798C78.612 8.41237 78.6923 8.54021 78.714 8.7215C78.7465 8.97744 78.7201 9.13216 78.6349 9.18566C78.5497 9.23916 78.3044 9.26632 77.8991 9.26713C77.6431 9.3103 77.4245 9.33741 77.2432 9.34843C77.0619 9.3488 76.9286 9.34906 76.8432 9.34923C76.7046 9.36017 76.6139 9.36569 76.5713 9.36577C76.5286 9.36586 76.4646 9.37665 76.3793 9.39816C76.294 9.41966 76.2301 9.45712 76.1875 9.51054C76.1556 9.55327 76.1184 9.61734 76.0759 9.70276C76.0333 9.74551 75.9696 9.85764 75.8846 10.0391C75.7996 10.2206 75.6934 10.4182 75.5658 10.6318C75.4173 11.0801 75.2902 11.5283 75.1845 11.9765C75.0787 12.4141 74.9942 12.8409 74.931 13.257C74.8889 13.5238 74.8946 13.7105 74.9481 13.817C75.0016 13.9129 75.1404 13.9713 75.3645 13.9922C75.4818 14.0026 75.6685 14.0022 75.9245 13.9911C76.1911 13.9692 76.399 13.9368 76.5483 13.8938C76.6655 13.8403 76.7881 13.7867 76.916 13.7331C77.0438 13.6688 77.161 13.6046 77.2676 13.5404C77.3635 13.4869 77.4594 13.4333 77.5553 13.3798C77.6511 13.3156 77.6991 13.2835 77.6991 13.2835C77.7522 13.1981 77.8108 13.1713 77.8749 13.2032C77.939 13.2351 77.9925 13.3149 78.0354 13.4429C78.0356 13.5709 78.0092 13.7042 77.9562 13.843C77.9031 13.9818 77.7061 14.1475 77.3652 14.3402C76.8858 14.6398 76.4435 14.822 76.0383 14.8868C75.6437 14.941 75.3077 14.9416 75.0303 14.8889Z" fill="black"/>
<path d="M80.6309 14.922C80.4923 14.9162 80.3816 14.8848 80.2985 14.828C80.2262 14.7716 80.1334 14.693 80.0202 14.5921C79.8266 14.3705 79.6912 14.162 79.614 13.9666C79.5372 13.7605 79.5186 13.5676 79.5581 13.3877C79.5937 13.3038 79.6077 13.2243 79.6002 13.1493C79.6037 13.064 79.6055 13.0214 79.6055 13.0214C79.5545 12.9659 79.5398 12.9332 79.5616 12.9235C79.5838 12.9031 79.6064 12.872 79.6295 12.8302C79.6935 12.8329 79.7172 12.7752 79.7008 12.6571C79.6831 12.5709 79.7335 12.3862 79.8521 12.1029C79.9708 11.8196 80.1154 11.5535 80.2859 11.3044C80.3543 11.2005 80.4561 11.0659 80.5911 10.9008C80.7266 10.725 80.8725 10.5549 81.0288 10.3906C81.1963 10.2162 81.3462 10.0783 81.4785 9.9771C81.7543 9.76445 81.9957 9.60908 82.2026 9.51099C82.4096 9.41289 82.6314 9.34211 82.8681 9.29864C83.1048 9.25517 83.2658 9.23522 83.351 9.23879C83.4469 9.24281 83.5713 9.33342 83.724 9.51063C83.9646 9.62747 84.1351 9.76272 84.2355 9.91639C84.3464 10.0705 84.4119 10.2921 84.4318 10.5812C84.4504 10.9022 84.4084 11.2688 84.3057 11.6809C84.2141 12.0827 83.9425 12.5785 83.4908 13.1681C83.2083 13.5406 82.9511 13.8181 82.7193 14.0005C82.4879 14.1723 82.2139 14.3424 81.8972 14.5106C81.6672 14.6504 81.46 14.7538 81.2757 14.8209C81.0918 14.8772 80.8769 14.9109 80.6309 14.922ZM82.2365 13.2917C82.5043 13.0147 82.7182 12.7514 82.8781 12.5019C83.0487 12.2528 83.2115 11.934 83.3665 11.5455C83.4141 11.43 83.4468 11.2873 83.4645 11.1172C83.4828 10.9365 83.4844 10.771 83.4693 10.621C83.4653 10.4606 83.4318 10.3685 83.3688 10.3445C83.244 10.2645 83.0904 10.2368 82.9079 10.2611C82.7258 10.2749 82.5244 10.3679 82.3037 10.5401C81.9617 10.8034 81.6594 11.1377 81.3969 11.5431C81.1348 11.9378 80.8756 12.3913 80.6193 12.9037C80.4434 13.2807 80.3932 13.5882 80.4686 13.8262C80.5551 14.054 80.7489 14.1422 81.05 14.0908C81.3622 14.0291 81.7577 13.7628 82.2365 13.2917Z" fill="black"/>
<path d="M90.3102 15.4455C90.224 15.3598 90.1642 15.2773 90.1309 15.198C90.1082 15.12 90.1257 14.977 90.1833 14.7692C90.2513 14.4766 90.3253 14.2224 90.4054 14.0065C90.4868 13.78 90.5827 13.5231 90.693 13.2357C90.7297 13.1112 90.8145 12.9013 90.9473 12.6058C91.0907 12.3117 91.2585 11.9937 91.4507 11.6518C91.6429 11.31 91.8325 10.9893 92.0195 10.6897C92.2079 10.3796 92.3647 10.1516 92.4899 10.0057C92.5824 9.95254 92.6862 9.93835 92.8014 9.96317C92.9272 9.98928 93.0272 10.0499 93.1016 10.1449C93.2064 10.2544 93.2016 10.4258 93.0871 10.659C92.9846 10.8828 92.7805 11.234 92.4749 11.7125C92.3129 11.9828 92.1911 12.1882 92.1095 12.3287C92.0291 12.4586 91.9923 12.5401 91.999 12.5731C92.007 12.5956 92.0566 12.5855 92.1478 12.5429C92.2255 12.4342 92.3582 12.3161 92.5457 12.1886C92.7345 12.0505 92.9332 11.9189 93.1419 11.794C93.3506 11.669 93.5468 11.5587 93.7304 11.4629C93.914 11.3671 94.0396 11.3072 94.107 11.2832C94.1981 11.2406 94.2986 11.2099 94.4084 11.1911C94.53 11.163 94.6133 11.1409 94.6582 11.1249C94.916 11.0382 95.17 11.0262 95.4202 11.089C95.6704 11.1518 95.8176 11.2665 95.8617 11.4331C95.862 11.5191 95.886 11.5865 95.9338 11.6353C95.9921 11.6854 96.0213 11.7105 96.0213 11.7105C96.0636 11.7157 96.0829 11.7341 96.079 11.7659C96.0857 11.799 96.0891 11.8155 96.0891 11.8155C96.08 11.8896 96.0159 11.9301 95.8969 11.9371C95.7897 11.9347 95.6508 11.9285 95.4801 11.9184C95.3411 11.9122 95.2162 11.9238 95.1051 11.9532C94.994 11.9826 94.8605 12.02 94.7045 12.0655C94.2737 12.2492 93.8595 12.4297 93.4617 12.6067C93.0746 12.7851 92.689 13.0389 92.3049 13.3681C92.2204 13.4437 92.134 13.5353 92.0457 13.6427C91.9573 13.7501 91.8624 13.8674 91.7609 13.9947C91.7015 14.0412 91.6343 14.1512 91.5594 14.3247C91.4844 14.4983 91.4154 14.6672 91.3524 14.8314C91.3012 14.9863 91.2737 15.0797 91.2698 15.1114C91.2698 15.1114 91.2475 15.1624 91.2028 15.2644C91.1594 15.3559 91.0948 15.4447 91.009 15.5309C90.8613 15.6848 90.7451 15.7566 90.6604 15.7462C90.5757 15.7359 90.459 15.6357 90.3102 15.4455Z" fill="black"/>
<path d="M98.504 16.696C98.2515 16.8485 97.9752 16.9159 97.6754 16.8983C97.3861 16.8824 97.1143 16.7938 96.86 16.6324C96.6076 16.4605 96.413 16.2334 96.2763 15.951C96.136 15.6897 96.0642 15.4073 96.0608 15.104C96.0591 14.7901 96.1197 14.3947 96.2426 13.9177C96.3426 13.5127 96.5426 13.1243 96.8426 12.7526C97.1443 12.3704 97.4855 12.0434 97.8661 11.7717C98.2572 11.5018 98.6263 11.3309 98.9736 11.2591C99.149 11.1802 99.2884 11.1548 99.3918 11.1829C99.5076 11.2022 99.6794 11.2417 99.9074 11.3014C100.144 11.3734 100.315 11.4506 100.42 11.533C100.536 11.6172 100.622 11.7181 100.678 11.8356C100.809 12.0197 100.888 12.1951 100.915 12.3617C100.943 12.5178 100.944 12.6695 100.92 12.8167C100.839 13.0412 100.634 13.2989 100.304 13.5899C99.9865 13.8722 99.5945 14.0825 99.128 14.2209C98.8843 14.2559 98.6265 14.2454 98.3547 14.1892C98.0829 14.133 97.8681 14.0268 97.7103 13.8707C97.5245 13.7532 97.3903 13.747 97.3079 13.8522C97.2272 13.9469 97.1254 14.2003 97.0026 14.6123C96.8938 15.0051 96.8762 15.305 96.9497 15.5119C97.0251 15.7083 97.1496 15.8372 97.3232 15.8987C97.5266 15.9759 97.6844 16.0347 97.7966 16.075C97.9211 16.1066 98.0815 16.0847 98.278 16.0094C98.4639 15.9323 98.5787 15.892 98.6226 15.8885C98.6682 15.8744 98.7033 15.8587 98.7278 15.8411C98.7646 15.8148 98.8444 15.7579 98.9672 15.6702C99.0532 15.6089 99.1198 15.5659 99.1672 15.5414C99.2163 15.5063 99.2671 15.4932 99.3197 15.502C99.3723 15.5108 99.4153 15.545 99.4486 15.6046C99.4837 15.6537 99.5205 15.6923 99.559 15.7204C99.6642 15.7379 99.6748 15.8046 99.5906 15.9203C99.5169 16.0377 99.3809 16.1719 99.1827 16.3226C98.9863 16.4629 98.7601 16.5873 98.504 16.696ZM99.0467 13.3476C99.1712 13.3143 99.3045 13.2609 99.4466 13.1873C99.5904 13.1031 99.714 13.0102 99.8175 12.9085C99.9333 12.7981 99.9982 12.7008 100.012 12.6166C100.037 12.4693 99.9886 12.3369 99.8677 12.2194C99.7485 12.0913 99.5459 12.0413 99.2601 12.0693C99.1391 12.0815 98.9944 12.1385 98.826 12.2402C98.6594 12.3313 98.4954 12.4391 98.3341 12.5636C98.1832 12.6898 98.0561 12.8038 97.9526 12.9054C97.8596 13.0089 97.8219 13.0729 97.8394 13.0974C97.8622 13.1553 97.9446 13.2123 98.0866 13.2685C98.2304 13.3141 98.3926 13.3466 98.5732 13.3659C98.7644 13.387 98.9222 13.3809 99.0467 13.3476Z" fill="black"/>
<path d="M101.503 17.3104C101.479 17.218 101.44 17.1442 101.387 17.0891C101.335 17.0235 101.314 16.9699 101.323 16.9282C101.332 16.8864 101.336 16.8436 101.334 16.7997C101.345 16.7475 101.334 16.6961 101.302 16.6454C101.263 16.5717 101.298 16.432 101.408 16.2264C101.52 16.0104 101.683 15.7563 101.899 15.4643C102.116 15.1619 102.363 14.8494 102.64 14.5269C102.741 14.4613 102.848 14.3697 102.96 14.252C103.073 14.1343 103.154 14.0591 103.205 14.0263C103.214 13.9846 103.238 13.9514 103.276 13.9269C103.316 13.8919 103.357 13.8788 103.399 13.8878L103.419 13.7939C103.43 13.7418 103.496 13.6632 103.616 13.5581C103.748 13.4553 103.902 13.3466 104.079 13.2319C104.259 13.1068 104.441 12.9932 104.627 12.8911C104.815 12.7787 104.967 12.7023 105.085 12.6621C105.335 12.5631 105.579 12.5225 105.815 12.5404C106.061 12.5606 106.253 12.6563 106.391 12.8277C106.416 12.8657 106.457 12.929 106.514 13.0177C106.572 13.1063 106.637 13.2077 106.711 13.3217C106.797 13.4275 106.883 13.5385 106.967 13.6547L107.435 14.2951L106.985 15.0169C106.76 15.405 106.646 15.7622 106.641 16.0886C106.647 16.4171 106.693 16.7106 106.78 16.9692C106.807 17.0951 106.888 17.2269 107.022 17.3648C107.167 17.5049 107.31 17.601 107.451 17.6531C107.532 17.6815 107.604 17.7295 107.666 17.7973C107.727 17.8651 107.746 17.9564 107.721 18.0711C107.699 18.1754 107.66 18.2544 107.605 18.308C107.55 18.3616 107.468 18.3877 107.359 18.3862C107.006 18.3541 106.701 18.2014 106.443 17.9279C106.196 17.6567 105.998 17.2544 105.851 16.7209C105.823 16.6494 105.79 16.5224 105.753 16.3399C105.728 16.1491 105.716 16.0266 105.717 15.9722C105.664 16.0154 105.565 16.0977 105.419 16.2191C105.275 16.3301 105.165 16.4102 105.089 16.4593C104.187 17.0515 103.438 17.4198 102.839 17.5642C102.254 17.7005 101.808 17.6159 101.503 17.3104ZM102.254 16.5551C102.238 16.6281 102.348 16.6515 102.582 16.6255C102.83 16.5913 103.106 16.4978 103.412 16.3451C103.831 16.1187 104.257 15.861 104.69 15.572C105.133 15.2852 105.498 15.0089 105.784 14.743L106.249 14.2536C106.196 13.9913 106.116 13.8051 106.009 13.6948C105.914 13.5763 105.825 13.5082 105.742 13.4903C105.606 13.4612 105.376 13.5427 105.051 13.7349C104.737 13.9293 104.384 14.2027 103.992 14.555C103.6 14.9073 103.215 15.3047 102.836 15.7472C102.687 15.9334 102.55 16.1167 102.424 16.2969C102.31 16.469 102.254 16.5551 102.254 16.5551Z" fill="black"/>
<path d="M111.353 20.6645C111.211 20.6599 111.103 20.6092 111.029 20.5124C110.963 20.4287 110.926 20.3195 110.917 20.1848C110.898 19.9258 110.904 19.6517 110.937 19.3624C110.982 19.0655 111.044 18.8115 111.122 18.6004L111.239 18.2838L110.509 18.6034C110.076 18.8198 109.677 18.9514 109.312 18.998C108.957 19.0473 108.655 19.0392 108.408 18.9736C108.3 18.9229 108.198 18.8516 108.101 18.7597C108.003 18.6678 107.921 18.5631 107.853 18.4457C107.795 18.3311 107.754 18.2153 107.729 18.0986C107.706 17.9378 107.737 17.7365 107.823 17.4945C107.92 17.2552 108.053 17.0035 108.222 16.7394C108.404 16.4677 108.605 16.2118 108.823 15.9717C109.054 15.724 109.296 15.5178 109.55 15.3532C110.026 14.9278 110.476 14.7104 110.898 14.7008C111.319 14.6912 111.691 14.8504 112.012 15.1783C112.251 15.3628 112.402 15.458 112.466 15.4641C112.541 15.4729 112.635 15.3708 112.746 15.1576C112.831 15.0036 112.916 14.8495 113.001 14.6955C113.089 14.5311 113.217 14.3169 113.387 14.0528C113.852 13.3375 114.236 12.7827 114.539 12.3886C114.853 11.9971 115.131 11.6569 115.373 11.368C115.549 11.1609 115.68 11.0411 115.766 11.0087C115.865 10.9687 115.954 10.9648 116.034 10.9969C116.147 11.027 116.239 11.0956 116.31 11.2026C116.381 11.3097 116.423 11.4423 116.437 11.6003C116.453 11.704 116.447 11.7906 116.418 11.86C116.401 11.9219 116.347 12.0013 116.255 12.0984C116.055 12.3103 115.808 12.5979 115.513 12.9611C115.231 13.3168 114.934 13.7123 114.619 14.1478C114.316 14.5859 114.024 15.0216 113.743 15.4549C113.463 15.8883 113.223 16.2717 113.025 16.6052C112.903 16.8157 112.77 17.0893 112.625 17.4262C112.491 17.7659 112.359 18.1172 112.23 18.4802C112.103 18.8329 111.997 19.1522 111.91 19.4382C111.836 19.7165 111.799 19.8997 111.797 19.9877C111.805 20.2103 111.789 20.3718 111.752 20.4721C111.724 20.5753 111.681 20.6354 111.621 20.6527C111.559 20.6803 111.469 20.6842 111.353 20.6645ZM109.194 18.255C109.347 18.2624 109.501 18.2425 109.657 18.1956C109.823 18.1513 109.999 18.093 110.183 18.0206C110.556 17.8654 110.881 17.7199 111.16 17.5841C111.438 17.4484 111.667 17.189 111.846 16.806C111.919 16.6155 111.939 16.4554 111.907 16.3256C111.888 16.1882 111.831 16.0516 111.734 15.9157C111.632 15.8004 111.471 15.7244 111.249 15.6876C111.04 15.6433 110.794 15.6941 110.513 15.8402C110.205 16.0015 109.882 16.2415 109.544 16.5601C109.216 16.8815 108.922 17.3055 108.661 17.8323C108.613 17.9299 108.622 18.0206 108.688 18.1043C108.754 18.188 108.923 18.2383 109.194 18.255Z" fill="black"/>
<path d="M124.862 24.3326C124.819 24.2944 124.762 24.217 124.691 24.1005C124.619 23.984 124.583 23.8178 124.582 23.6018C124.584 23.3758 124.648 23.0872 124.775 22.7361C124.894 22.4388 124.984 22.2049 125.046 22.0343C125.118 21.8674 125.113 21.7694 125.033 21.7404C124.953 21.7114 124.768 21.7355 124.479 21.8127C124.204 21.8834 123.874 21.9966 123.489 22.1523C123.104 22.308 122.703 22.492 122.286 22.7043C122.146 22.7784 122.007 22.8475 121.871 22.9115C121.748 22.9692 121.636 22.9968 121.535 22.9942C121.437 22.9817 121.345 22.9085 121.257 22.7747L121.14 22.5795C121.108 22.5112 121.096 22.4502 121.104 22.3964C121.116 22.3326 121.145 22.2692 121.19 22.2062L121.895 21.3381C122.186 21.0349 122.391 20.814 122.509 20.6752C122.631 20.5264 122.699 20.432 122.713 20.3919C122.731 20.3417 122.724 20.3162 122.69 20.3153C122.606 20.2964 122.467 20.303 122.274 20.3353C122.085 20.3576 121.95 20.3998 121.871 20.4619C121.831 20.4474 121.755 20.4708 121.642 20.5321C121.529 20.5934 121.398 20.6424 121.248 20.6792C121.135 20.7742 120.938 20.8789 120.658 20.9934C120.389 21.1115 120.118 21.2346 119.845 21.3628C119.674 21.426 119.495 21.5143 119.306 21.6277C119.128 21.7447 118.972 21.8471 118.838 21.9348C118.714 22.0262 118.638 22.0665 118.607 22.0556C118.477 22.0085 118.369 21.9299 118.284 21.8198C118.209 21.7133 118.176 21.5707 118.184 21.3921C118.165 21.1926 118.25 20.9568 118.439 20.6849C118.632 20.4029 118.867 20.0342 119.145 19.5789C119.24 19.4429 119.305 19.3417 119.34 19.2751C119.375 19.2085 119.416 19.1437 119.461 19.0807C119.52 19.0113 119.609 18.9072 119.727 18.7685C119.855 18.6333 120.048 18.4306 120.304 18.1604C120.443 17.9951 120.534 17.8692 120.577 17.7825C120.633 17.6895 120.669 17.6229 120.683 17.5827C120.719 17.4824 120.775 17.4062 120.851 17.3541C120.936 17.3056 121.025 17.2809 121.116 17.2798C121.207 17.2787 121.284 17.3008 121.347 17.3463C121.45 17.4062 121.525 17.4958 121.573 17.6151C121.631 17.738 121.635 17.8815 121.588 18.0457C121.554 18.1697 121.504 18.2764 121.438 18.3659C121.375 18.4453 121.314 18.5197 121.255 18.589L120.943 18.9355C120.853 19.0277 120.73 19.1647 120.573 19.3464C120.417 19.528 120.276 19.6983 120.15 19.8571C120.029 20.0059 119.962 20.0953 119.951 20.1254C119.951 20.1592 119.987 20.1668 120.062 20.1484C120.14 20.12 120.239 20.082 120.359 20.0344C120.491 19.9804 120.623 19.9313 120.752 19.8873C121.035 19.7628 121.34 19.6574 121.666 19.5711C122.006 19.4783 122.319 19.4103 122.607 19.3668C122.895 19.3234 123.112 19.3052 123.256 19.3122C123.427 19.3738 123.531 19.4456 123.57 19.5275C123.618 19.6131 123.694 19.7652 123.796 19.9837C123.841 20.0793 123.849 20.184 123.819 20.298C123.789 20.412 123.746 20.5155 123.69 20.6086C123.665 20.6451 123.599 20.7345 123.491 20.8769C123.386 21.0093 123.283 21.1366 123.182 21.2589C123.092 21.3849 123.046 21.4478 123.046 21.4478C123.046 21.4478 123.119 21.4176 123.266 21.3572C123.423 21.3004 123.591 21.2421 123.771 21.1825C123.955 21.1129 124.093 21.0607 124.185 21.0259C124.685 20.8663 125.095 20.7989 125.415 20.8238C125.735 20.8487 125.933 21.0392 126.008 21.3954C126.089 21.5492 126.105 21.6913 126.058 21.8217C126.021 21.9558 125.945 22.1833 125.829 22.5043C125.792 22.6384 125.745 22.7975 125.69 22.9817C125.635 23.1659 125.585 23.335 125.541 23.4891C125.51 23.6368 125.5 23.7294 125.509 23.7667C125.524 23.8177 125.567 23.8728 125.636 23.9318C125.719 23.9845 125.827 24.0463 125.961 24.1171C126.104 24.1915 126.17 24.2894 126.161 24.4106C126.151 24.5318 126.048 24.6136 125.851 24.6559C125.668 24.6918 125.488 24.6721 125.311 24.5969C125.134 24.5216 124.984 24.4335 124.862 24.3326Z" fill="black"/>
<path d="M125.828 25.37C125.7 25.3165 125.607 25.2486 125.549 25.1665C125.501 25.0884 125.441 24.9825 125.37 24.8486C125.266 24.5735 125.211 24.331 125.207 24.1209C125.206 23.901 125.256 23.7136 125.355 23.5587C125.418 23.4924 125.458 23.4227 125.477 23.3497C125.51 23.271 125.527 23.2316 125.527 23.2316C125.498 23.1619 125.496 23.1262 125.52 23.1246C125.548 23.1131 125.58 23.0918 125.616 23.0607C125.675 23.0854 125.717 23.0396 125.743 22.9231C125.756 22.8362 125.868 22.6805 126.077 22.456C126.287 22.2316 126.515 22.0322 126.761 21.8578C126.862 21.7842 127.004 21.6933 127.188 21.5854C127.376 21.4675 127.572 21.3587 127.775 21.259C127.993 21.1535 128.181 21.0763 128.341 21.0274C128.673 20.9238 128.953 20.8619 129.182 20.8418C129.41 20.8217 129.642 20.8324 129.879 20.8738C130.116 20.9152 130.274 20.9524 130.353 20.9854C130.442 21.0225 130.527 21.1506 130.608 21.3699C130.793 21.563 130.906 21.749 130.947 21.928C130.998 22.1111 130.982 22.3416 130.9 22.6196C130.806 22.9271 130.639 23.2563 130.4 23.607C130.175 23.9521 129.748 24.3226 129.119 24.7186C128.725 24.9698 128.388 25.1407 128.107 25.2313C127.83 25.312 127.514 25.3763 127.159 25.4241C126.894 25.4753 126.664 25.5003 126.468 25.4992C126.276 25.4882 126.063 25.4451 125.828 25.37ZM127.9 24.3989C128.248 24.2322 128.54 24.0595 128.776 23.8811C129.023 23.7068 129.286 23.4643 129.566 23.1539C129.651 23.0621 129.731 22.9396 129.807 22.7863C129.887 22.6231 129.946 22.4686 129.984 22.3226C130.036 22.1709 130.036 22.0728 129.986 22.0284C129.896 21.9101 129.762 21.8307 129.582 21.7902C129.407 21.7398 129.186 21.7571 128.919 21.8419C128.507 21.97 128.107 22.1786 127.72 22.4675C127.337 22.7466 126.937 23.0819 126.518 23.4734C126.223 23.7658 126.069 24.0367 126.057 24.2861C126.059 24.5298 126.21 24.6798 126.51 24.7362C126.824 24.7868 127.288 24.6744 127.9 24.3989Z" fill="black"/>
<path d="M130.488 27.1234C130.433 27.0149 130.402 26.9178 130.395 26.8321C130.398 26.7509 130.46 26.6207 130.58 26.4413C130.736 26.1848 130.886 25.9666 131.03 25.7867C131.178 25.5972 131.349 25.3832 131.544 25.1449C131.618 25.0382 131.764 24.8654 131.983 24.6265C132.212 24.3922 132.471 24.1428 132.76 23.8784C133.05 23.614 133.33 23.3689 133.602 23.1431C133.878 22.9076 134.098 22.7403 134.263 22.641C134.368 22.6195 134.471 22.6386 134.572 22.6982C134.683 22.7625 134.759 22.8513 134.8 22.9649C134.866 23.1018 134.807 23.263 134.625 23.4485C134.458 23.629 134.154 23.8985 133.714 24.257C133.475 24.463 133.295 24.6199 133.174 24.7277C133.057 24.8258 132.996 24.8916 132.992 24.9251C132.993 24.949 133.043 24.955 133.143 24.9431C133.251 24.8642 133.414 24.7937 133.632 24.7313C133.854 24.6593 134.084 24.5967 134.322 24.5435C134.559 24.4903 134.78 24.447 134.984 24.4136C135.189 24.3802 135.327 24.3627 135.398 24.361C135.498 24.3491 135.603 24.3515 135.713 24.368C135.838 24.3794 135.924 24.3846 135.971 24.3835C136.243 24.3819 136.488 24.4502 136.706 24.5883C136.924 24.7263 137.028 24.8814 137.018 25.0534C136.991 25.1351 136.992 25.2067 137.023 25.268C137.062 25.3339 137.082 25.3668 137.082 25.3668C137.121 25.385 137.133 25.4086 137.12 25.4375C137.116 25.471 137.114 25.4878 137.114 25.4878C137.082 25.5553 137.008 25.5737 136.893 25.543C136.792 25.5072 136.662 25.4577 136.503 25.3946C136.373 25.3451 136.251 25.317 136.136 25.3101C136.021 25.3032 135.883 25.2969 135.72 25.2911C135.254 25.3306 134.804 25.3721 134.371 25.4156C133.947 25.4636 133.501 25.5837 133.033 25.7759C132.929 25.8213 132.819 25.8811 132.701 25.9554C132.584 26.0297 132.457 26.1114 132.32 26.2004C132.249 26.226 132.151 26.3094 132.026 26.4507C131.9 26.5919 131.782 26.7307 131.67 26.8669C131.573 26.998 131.518 27.078 131.504 27.1069C131.504 27.1069 131.467 27.1484 131.392 27.2312C131.323 27.3044 131.233 27.3685 131.125 27.4235C130.936 27.5233 130.803 27.5551 130.726 27.5187C130.649 27.4823 130.57 27.3505 130.488 27.1234Z" fill="black"/>
<path d="M137.877 30.8793C137.589 30.9449 137.306 30.9224 137.027 30.8117C136.757 30.7059 136.527 30.5366 136.336 30.3036C136.15 30.0612 136.036 29.7845 135.995 29.4735C135.944 29.1814 135.964 28.8908 136.056 28.6016C136.153 28.303 136.334 27.9466 136.6 27.5322C136.822 27.1789 137.134 26.8728 137.535 26.6139C137.942 26.3455 138.368 26.142 138.815 26.0032C139.271 25.8695 139.675 25.8229 140.027 25.8636C140.218 25.8437 140.359 25.8633 140.448 25.9224C140.552 25.977 140.703 26.0684 140.901 26.1965C141.103 26.339 141.241 26.4659 141.315 26.5772C141.399 26.6934 141.448 26.8161 141.465 26.9453C141.532 27.1614 141.552 27.3526 141.525 27.5191C141.502 27.6761 141.456 27.8206 141.387 27.9528C141.24 28.1406 140.964 28.321 140.56 28.494C140.17 28.6625 139.732 28.7394 139.245 28.7246C139.003 28.6814 138.761 28.5906 138.521 28.452C138.281 28.3135 138.11 28.1453 138.009 27.9476C137.869 27.7778 137.744 27.7299 137.633 27.8039C137.526 27.8685 137.35 28.0772 137.104 28.43C136.878 28.7689 136.767 29.0481 136.772 29.2677C136.782 29.4778 136.86 29.6393 137.006 29.752C137.175 29.8891 137.306 29.9944 137.4 30.0679C137.508 30.1369 137.667 30.1664 137.878 30.1564C138.078 30.1415 138.2 30.1392 138.243 30.1496C138.29 30.1506 138.329 30.1466 138.357 30.1377C138.401 30.1243 138.494 30.0952 138.638 30.0504C138.739 30.0191 138.816 29.9992 138.869 29.9908C138.926 29.9729 138.979 29.9763 139.026 30.0012C139.073 30.026 139.103 30.0719 139.116 30.139C139.134 30.1966 139.157 30.2448 139.185 30.2835C139.279 30.3332 139.268 30.3998 139.152 30.4833C139.045 30.5717 138.874 30.6565 138.639 30.7375C138.408 30.8091 138.154 30.8563 137.877 30.8793ZM139.442 27.8698C139.571 27.8772 139.714 27.8682 139.872 27.8429C140.035 27.8081 140.181 27.7586 140.312 27.6945C140.456 27.6259 140.548 27.5538 140.588 27.4783C140.657 27.3461 140.653 27.2053 140.575 27.0558C140.502 26.8968 140.325 26.7858 140.045 26.7228C139.927 26.6965 139.771 26.7052 139.58 26.749C139.393 26.7833 139.203 26.8343 139.011 26.9019C138.828 26.9745 138.672 27.0428 138.542 27.1069C138.421 27.176 138.365 27.225 138.374 27.2538C138.377 27.3159 138.438 27.3958 138.555 27.4937C138.677 27.5821 138.821 27.6638 138.987 27.7388C139.161 27.8187 139.313 27.8624 139.442 27.8698Z" fill="black"/>
<path d="M142.887 31.2862C142.602 31.183 142.503 30.9595 142.591 30.616C142.678 30.2724 142.936 29.8794 143.364 29.437C143.484 29.3582 143.591 29.2787 143.687 29.1985C143.788 29.109 143.857 29.0319 143.895 28.9673C144.001 28.8686 144.127 28.7568 144.273 28.6318C144.434 28.5029 144.587 28.3879 144.732 28.2868C144.882 28.1764 144.984 28.1061 145.038 28.0759C145.075 28.0973 145.131 28.0863 145.205 28.043C145.289 28.0051 145.349 27.9538 145.386 27.8891C145.429 27.8152 145.491 27.7401 145.572 27.6638C145.662 27.5928 145.737 27.5495 145.795 27.5339C145.822 27.4877 145.87 27.4476 145.938 27.4136C146.007 27.3795 146.053 27.344 146.074 27.3071C146.095 27.2701 146.123 27.2431 146.158 27.2261C146.201 27.2144 146.234 27.1901 146.255 27.1532C146.424 27.0534 146.655 26.8978 146.95 26.6863C147.26 26.4708 147.572 26.2388 147.888 25.9903C148.214 25.7472 148.495 25.5276 148.731 25.3317C148.968 25.1357 149.102 25.01 149.134 24.9546C149.195 24.8914 149.255 24.852 149.313 24.8364C149.371 24.8208 149.432 24.8436 149.495 24.9048C149.548 24.8984 149.593 24.9059 149.63 24.9273C149.672 24.9394 149.712 24.9561 149.749 24.9775C149.749 24.9775 149.752 25.004 149.759 25.0569C149.774 25.1152 149.793 25.2 149.815 25.3112C149.851 25.4186 149.85 25.5165 149.811 25.6049C149.773 25.6934 149.721 25.793 149.657 25.9038C149.546 26.074 149.367 26.2351 149.119 26.3874C148.871 26.5396 148.595 26.707 148.293 26.8894C148.099 27.0115 147.911 27.1243 147.728 27.2279C147.554 27.3369 147.456 27.4098 147.435 27.4468C147.413 27.4837 147.363 27.5284 147.283 27.581C147.204 27.6335 147.109 27.7018 146.998 27.7859C146.89 27.8463 146.766 27.9224 146.626 28.0143C146.487 28.1062 146.357 28.1916 146.238 28.2704C146.133 28.3453 146.073 28.3966 146.057 28.4243C146.026 28.4559 145.991 28.4848 145.951 28.5111C145.92 28.5427 145.876 28.5663 145.818 28.5819C145.781 28.5605 145.742 28.5749 145.7 28.625C145.674 28.6711 145.66 28.6942 145.66 28.6942C145.639 28.7312 145.565 28.8055 145.439 28.9174C145.327 29.0253 145.172 29.1449 144.973 29.2763C144.514 29.6643 144.163 29.9847 143.918 30.2375C143.679 30.4811 143.491 30.6992 143.355 30.8917C143.209 31.1026 143.115 31.2212 143.076 31.2475C143.045 31.2791 142.982 31.292 142.887 31.2862ZM140.858 33.0703C140.645 33.0335 140.478 32.9804 140.358 32.911C140.253 32.8377 140.16 32.7103 140.08 32.5286C140.001 32.261 140.037 32.06 140.189 31.9258C140.355 31.7877 140.606 31.705 140.942 31.6775C141.167 31.672 141.319 31.686 141.398 31.7195C141.487 31.7583 141.593 31.8627 141.716 32.0326C141.892 32.3682 141.9 32.6315 141.74 32.8226C141.59 33.019 141.296 33.1015 140.858 33.0703Z" fill="black"/>
</svg>
